<svg xmlns="http://www.w3.org/2000/svg" xmlns:xlink="http://www.w3.org/1999/xlink" contentStyleType="text/css" data-diagram-type="STATE" height="3172px" preserveAspectRatio="none" style="width:1474px;height:3172px;background:#FFFFFF;" version="1.1" viewBox="0 0 1474 3172" width="1474px" zoomAndPan="magnify"><?plantuml 1.2026.6?><defs/><g><g class="title" data-source-line="1"><text fill="#000000" font-family="sans-serif" font-size="14" font-weight="700" lengthAdjust="spacing" textLength="382.5596" x="542.28" y="22.9951">State Machine &#8212; 3tombolSync (Integrasi Penuh)</text></g><!--cluster WAKE_UP--><g class="cluster" data-qualified-name="WAKE_UP" data-source-line="5" id="ent0001"><path d="M151.5,118.2969 L390.5,118.2969 A12.5,12.5 0 0 1 403,130.7969 L403,139.5938 L139,139.5938 L139,130.7969 A12.5,12.5 0 0 1 151.5,118.2969" fill="#F1F1F1"/><rect fill="none" height="349.19" rx="12.5" ry="12.5" style="stroke:#181818;stroke-width:0.5;" width="264" x="139" y="118.2969"/><line style="stroke:#181818;stroke-width:0.5;" x1="139" x2="403" y1="139.5938" y2="139.5938"/><text fill="#000000" font-family="sans-serif" font-size="14" lengthAdjust="spacing" textLength="67.1357" x="237.4321" y="135.292">WAKE_UP</text></g><!--cluster AUDIO_MODE--><g class="cluster" data-qualified-name="AUDIO_MODE" data-source-line="26" id="ent0007"><path d="M881.5,1293.7869 L1322.5,1293.7869 A12.5,12.5 0 0 1 1335,1306.2869 L1335,1315.0838 L869,1315.0838 L869,1306.2869 A12.5,12.5 0 0 1 881.5,1293.7869" fill="#F1F1F1"/><rect fill="none" height="1543.46" rx="12.5" ry="12.5" style="stroke:#181818;stroke-width:0.5;" width="466" x="869" y="1293.7869"/><line style="stroke:#181818;stroke-width:0.5;" x1="869" x2="1335" y1="1315.0838" y2="1315.0838"/><text fill="#000000" font-family="sans-serif" font-size="14" lengthAdjust="spacing" textLength="95.4775" x="1054.2612" y="1310.782">AUDIO_MODE</text></g><!--cluster SYNC_MODE--><g class="cluster" data-qualified-name="SYNC_MODE" data-source-line="72" id="ent0018"><path d="M353.5,532.4869 L816.5,532.4869 A12.5,12.5 0 0 1 829,544.9869 L829,553.7838 L341,553.7838 L341,544.9869 A12.5,12.5 0 0 1 353.5,532.4869" fill="#F1F1F1"/><rect fill="none" height="891.75" rx="12.5" ry="12.5" style="stroke:#181818;stroke-width:0.5;" width="488" x="341" y="532.4869"/><line style="stroke:#181818;stroke-width:0.5;" x1="341" x2="829" y1="553.7838" y2="553.7838"/><text fill="#000000" font-family="sans-serif" font-size="14" lengthAdjust="spacing" textLength="87.4111" x="541.2944" y="549.482">SYNC_MODE</text></g><g class="entity" data-qualified-name="WAKE_UP.Splash" data-source-line="7" id="ent0002"><rect fill="#F1F1F1" height="52.5938" rx="12.5" ry="12.5" style="stroke:#181818;stroke-width:0.5;" width="208.2754" x="162.86" y="261.2969"/><line style="stroke:#181818;stroke-width:0.5;" x1="162.86" x2="371.1354" y1="287.5938" y2="287.5938"/><text fill="#000000" font-family="sans-serif" font-size="14" lengthAdjust="spacing" textLength="46.4092" x="243.7931" y="279.292">Splash</text><text fill="#000000" font-family="sans-serif" font-size="14" lengthAdjust="spacing" textLength="188.2754" x="167.86" y="305.5889">"WAKE UP! System Ready"</text></g><g class="entity" data-qualified-name="WAKE_UP.CekMode" data-source-line="9" id="ent0003"><rect fill="#F1F1F1" height="52.5938" rx="12.5" ry="12.5" style="stroke:#181818;stroke-width:0.5;" width="202.0684" x="165.97" y="390.8869"/><line style="stroke:#181818;stroke-width:0.5;" x1="165.97" x2="368.0384" y1="417.1838" y2="417.1838"/><text fill="#000000" font-family="sans-serif" font-size="14" lengthAdjust="spacing" textLength="64.6406" x="234.6839" y="408.882">CekMode</text><text fill="#000000" font-family="sans-serif" font-size="14" lengthAdjust="spacing" textLength="182.0684" x="170.97" y="435.1789">Baca boot_mode dari NVS</text></g><g class="start_entity" data-qualified-name="WAKE_UP..start.WAKE_UP" data-source-line="6" id="ent0026"><ellipse cx="267" cy="190.2969" fill="#222222" rx="10" ry="10" style="stroke:#222222;stroke-width:1;"/></g><g class="entity" data-qualified-name="AUDIO_MODE.MAIN_MENU" data-source-line="29" id="ent0008"><rect fill="#F1F1F1" height="85.1875" rx="12.5" ry="12.5" style="stroke:#181818;stroke-width:0.5;" width="132.9229" x="1031.54" y="1495.2369"/><line style="stroke:#181818;stroke-width:0.5;" x1="1031.54" x2="1164.4629" y1="1521.5338" y2="1521.5338"/><text fill="#000000" font-family="sans-serif" font-size="14" lengthAdjust="spacing" textLength="84.9023" x="1055.5503" y="1513.232">MAIN_MENU</text><text fill="#000000" font-family="sans-serif" font-size="14" lengthAdjust="spacing" textLength="112.9229" x="1036.54" y="1539.5289">1. SCAN DEVICE</text><text fill="#000000" font-family="sans-serif" font-size="14" lengthAdjust="spacing" textLength="55.4941" x="1036.54" y="1555.8257">2. SYNC</text><text fill="#000000" font-family="sans-serif" font-size="14" lengthAdjust="spacing" textLength="48.9248" x="1036.54" y="1572.1226">3. EXIT</text></g><g class="entity" data-qualified-name="AUDIO_MODE.SCANNING" data-source-line="35" id="ent0009"><rect fill="#F1F1F1" height="68.8906" rx="12.5" ry="12.5" style="stroke:#181818;stroke-width:0.5;" width="167.4033" x="933.3" y="1657.4269"/><line style="stroke:#181818;stroke-width:0.5;" x1="933.3" x2="1100.7033" y1="1683.7238" y2="1683.7238"/><text fill="#000000" font-family="sans-serif" font-size="14" lengthAdjust="spacing" textLength="74.6348" x="979.6843" y="1675.422">SCANNING</text><text fill="#000000" font-family="sans-serif" font-size="14" lengthAdjust="spacing" textLength="147.4033" x="938.3" y="1701.7189">Scan A2DP earphone</text><text fill="#000000" font-family="sans-serif" font-size="14" lengthAdjust="spacing" textLength="68.1748" x="938.3" y="1718.0157">(20 detik)</text></g><g class="entity" data-qualified-name="AUDIO_MODE.SELECTING" data-source-line="38" id="ent0010"><rect fill="#F1F1F1" height="52.5938" rx="12.5" ry="12.5" style="stroke:#181818;stroke-width:0.5;" width="155.9941" x="893" y="1803.3169"/><line style="stroke:#181818;stroke-width:0.5;" x1="893" x2="1048.9941" y1="1829.6138" y2="1829.6138"/><text fill="#000000" font-family="sans-serif" font-size="14" lengthAdjust="spacing" textLength="78.1553" x="931.9194" y="1821.312">SELECTING</text><text fill="#000000" font-family="sans-serif" font-size="14" lengthAdjust="spacing" textLength="135.9941" x="898" y="1847.6089">Pilih device dari list</text></g><g class="entity" data-qualified-name="AUDIO_MODE.PAIRING" data-source-line="42" id="ent0011"><rect fill="#F1F1F1" height="68.8906" rx="12.5" ry="12.5" style="stroke:#181818;stroke-width:0.5;" width="192.8604" x="892.57" y="1947.9069"/><line style="stroke:#181818;stroke-width:0.5;" x1="892.57" x2="1085.4304" y1="1974.2038" y2="1974.2038"/><text fill="#000000" font-family="sans-serif" font-size="14" lengthAdjust="spacing" textLength="57.3262" x="960.3371" y="1965.902">PAIRING</text><text fill="#000000" font-family="sans-serif" font-size="14" lengthAdjust="spacing" textLength="172.8604" x="897.57" y="1992.1989">Hubungkan ke earphone</text><text fill="#000000" font-family="sans-serif" font-size="14" lengthAdjust="spacing" textLength="141.5996" x="897.57" y="2008.4957">simpan MAC ke NVS</text></g><g class="entity" data-qualified-name="AUDIO_MODE.MENU_PATTERN" data-source-line="45" id="ent0012"><rect fill="#F1F1F1" height="85.1875" rx="12.5" ry="12.5" style="stroke:#181818;stroke-width:0.5;" width="132.8135" x="937.59" y="2093.7969"/><line style="stroke:#181818;stroke-width:0.5;" x1="937.59" x2="1070.4035" y1="2120.0938" y2="2120.0938"/><text fill="#000000" font-family="sans-serif" font-size="14" lengthAdjust="spacing" textLength="112.8135" x="947.59" y="2111.792">MENU_PATTERN</text><text fill="#000000" font-family="sans-serif" font-size="14" lengthAdjust="spacing" textLength="111.1729" x="942.59" y="2138.0889">Pilih Pola Napas</text><text fill="#000000" font-family="sans-serif" font-size="14" lengthAdjust="spacing" textLength="101.124" x="942.59" y="2154.3857">&#9632; 3:2 (RELAX)</text><text fill="#000000" font-family="sans-serif" font-size="14" lengthAdjust="spacing" textLength="107.4609" x="942.59" y="2170.6826">&#9632; 2:1 (POWER)</text></g><g class="entity" data-qualified-name="AUDIO_MODE.IDLE" data-source-line="49" id="ent0013"><path d="M920,2255.9869 L1290.0095,2255.9869 A12.5,12.5 0 0 1 1302.5095,2268.4869 L1302.5095,2282.2838 L907.5,2282.2838 L907.5,2268.4869 A12.5,12.5 0 0 1 920,2255.9869" fill="#F1F1F1"/><rect fill="none" height="557.2644" rx="12.5" ry="12.5" style="stroke:#181818;stroke-width:0.5;" width="395.0095" x="907.5" y="2255.9869"/><line style="stroke:#181818;stroke-width:0.5;" x1="907.5" x2="1302.5095" y1="2282.2838" y2="2282.2838"/><text fill="#000000" font-family="sans-serif" font-size="14" lengthAdjust="spacing" textLength="31.5547" x="1089.2274" y="2273.982">IDLE</text><g class="entity" data-qualified-name="AUDIO_MODE.IDLE.ANALYZING" data-source-line="52" id="ent0014"><rect fill="#F1F1F1" height="68.8906" rx="12.5" ry="12.5" style="stroke:#181818;stroke-width:0.5;" width="247.0967" x="948.27" y="2350.2838"/><line style="stroke:#181818;stroke-width:0.5;" x1="948.27" x2="1195.3667" y1="2376.5806" y2="2376.5806"/><text fill="#000000" font-family="sans-serif" font-size="14" lengthAdjust="spacing" textLength="81.0195" x="1031.3086" y="2368.2789">ANALYZING</text><text fill="#000000" font-family="sans-serif" font-size="14" lengthAdjust="spacing" textLength="146.3027" x="953.27" y="2394.5757">Amati irama langkah</text><text fill="#000000" font-family="sans-serif" font-size="14" lengthAdjust="spacing" textLength="227.0967" x="953.27" y="2410.8726">hitung SPM, T_avg, stable_count</text></g><g class="entity" data-qualified-name="AUDIO_MODE.IDLE.GUIDING" data-source-line="55" id="ent0015"><path d="M932,2487.1738 L1211.6439,2487.1738 A12.5,12.5 0 0 1 1224.1439,2499.6738 L1224.1439,2513.4706 L919.5,2513.4706 L919.5,2499.6738 A12.5,12.5 0 0 1 932,2487.1738" fill="#F1F1F1"/><rect fill="none" height="313.0775" rx="12.5" ry="12.5" style="stroke:#181818;stroke-width:0.5;" width="304.6439" x="919.5" y="2487.1738"/><line style="stroke:#181818;stroke-width:0.5;" x1="919.5" x2="1224.1439" y1="2513.4706" y2="2513.4706"/><text fill="#000000" font-family="sans-serif" font-size="14" lengthAdjust="spacing" textLength="61.4551" x="1041.0944" y="2505.1689">GUIDING</text><g class="entity" data-qualified-name="AUDIO_MODE.IDLE.GUIDING.Active" data-source-line="57" id="ent0016"><rect fill="#F1F1F1" height="68.8906" rx="12.5" ry="12.5" style="stroke:#181818;stroke-width:0.5;" width="209.2324" x="931.5" y="2581.4706"/><line style="stroke:#181818;stroke-width:0.5;" x1="931.5" x2="1140.7324" y1="2607.7675" y2="2607.7675"/><text fill="#000000" font-family="sans-serif" font-size="14" lengthAdjust="spacing" textLength="43.5518" x="1014.3403" y="2599.4657">Active</text><text fill="#000000" font-family="sans-serif" font-size="14" lengthAdjust="spacing" textLength="172.416" x="936.5" y="2625.7626">Audio cue HIRUP/BUANG</text><text fill="#000000" font-family="sans-serif" font-size="14" lengthAdjust="spacing" textLength="189.2324" x="936.5" y="2642.0595">writeLogEntry tiap langkah</text></g><g class="entity" data-qualified-name="AUDIO_MODE.IDLE.GUIDING.Paused" data-source-line="59" id="ent0017"><rect fill="#F1F1F1" height="68.8906" rx="12.5" ry="12.5" style="stroke:#181818;stroke-width:0.5;" width="207.7832" x="932.22" y="2718.3606"/><line style="stroke:#181818;stroke-width:0.5;" x1="932.22" x2="1140.0032" y1="2744.6575" y2="2744.6575"/><text fill="#000000" font-family="sans-serif" font-size="14" lengthAdjust="spacing" textLength="50.6885" x="1010.7674" y="2736.3557">Paused</text><text fill="#000000" font-family="sans-serif" font-size="14" lengthAdjust="spacing" textLength="99.5381" x="937.22" y="2762.6526">Audio HENING</text><text fill="#000000" font-family="sans-serif" font-size="14" lengthAdjust="spacing" textLength="187.7832" x="937.22" y="2778.9495">OLED: STATUS ANALYZING</text></g><g class="start_entity" data-qualified-name="AUDIO_MODE.IDLE.GUIDING..start.GUIDING" data-source-line="56" id="ent0050"><ellipse cx="1036.12" cy="2534.4706" fill="#222222" rx="10" ry="10" style="stroke:#222222;stroke-width:1;"/></g><!--link *start*GUIDING to Active--><g class="link" data-entity-1="ent0050" data-entity-2="ent0016" data-link-type="dependency" data-source-line="56" id="lnk51"><path d="M1036.12,2544.8906 C1036.12,2553.8506 1036.12,2562.8806 1036.12,2576.0306" fill="none" id="*start*GUIDING-to-Active" style="stroke:#181818;stroke-width:1;"/><polygon fill="#181818" points="1036.12,2581.0306,1040.12,2572.0306,1036.12,2576.0306,1032.12,2572.0306,1036.12,2581.0306" style="stroke:#181818;stroke-width:1;stroke-linejoin:miter;stroke-miterlimit:10;"/></g><!--link Active to Paused--><g class="link" data-entity-1="ent0016" data-entity-2="ent0017" data-link-type="dependency" data-source-line="58" id="lnk52"><path d="M972.72,2650.8106 C967.32,2656.0006 962.6,2661.8406 959.12,2668.3606 C952.41,2680.9006 952.41,2687.8206 959.12,2700.3606 C962.6,2706.8806 963.7151,2709.2559 969.1151,2714.4459" fill="none" id="Active-to-Paused" style="stroke:#181818;stroke-width:1;"/><polygon fill="#181818" points="972.72,2717.9106,969.0029,2708.7901,969.1151,2714.4459,963.4593,2714.558,972.72,2717.9106" style="stroke:#181818;stroke-width:1;stroke-linejoin:miter;stroke-miterlimit:10;"/><text fill="#000000" font-family="sans-serif" font-size="13" lengthAdjust="spacing" textLength="131.3711" x="960.12" y="2688.9275">&gt;3 langkah meleset</text></g><!--link Paused to Active--><g class="link" data-entity-1="ent0017" data-entity-2="ent0016" data-link-type="dependency" data-source-line="60" id="lnk53"><path d="M1080.6,2718.1506 C1085.25,2712.7206 1089.3,2706.7706 1092.12,2700.3606 C1097.84,2687.3406 1097.84,2681.3806 1092.12,2668.3606 C1089.3,2661.9506 1088.5057,2659.7854 1083.8557,2654.3654" fill="none" id="Paused-to-Active" style="stroke:#181818;stroke-width:1;"/><polygon fill="#181818" points="1080.6,2650.5706,1083.4244,2660.0058,1083.8557,2654.3654,1089.4961,2654.7967,1080.6,2650.5706" style="stroke:#181818;stroke-width:1;stroke-linejoin:miter;stroke-miterlimit:10;"/><text fill="#000000" font-family="sans-serif" font-size="13" lengthAdjust="spacing" textLength="101.7339" x="1097.41" y="2681.4275">ritme stabil lagi</text><text fill="#000000" font-family="sans-serif" font-size="13" lengthAdjust="spacing" textLength="69.4688" x="1113.5426" y="2696.5603">&#8594; RESUME</text></g></g><g class="start_entity" data-qualified-name="AUDIO_MODE.IDLE..start.IDLE" data-source-line="50" id="ent0047"><ellipse cx="1071.82" cy="2303.2838" fill="#222222" rx="10" ry="10" style="stroke:#222222;stroke-width:1;"/></g><!--link *start*IDLE to ANALYZING--><g class="link" data-entity-1="ent0047" data-entity-2="ent0014" data-link-type="dependency" data-source-line="50" id="lnk48"><path d="M1071.82,2313.7138 C1071.82,2322.6738 1071.82,2331.6938 1071.82,2344.8438" fill="none" id="*start*IDLE-to-ANALYZING" style="stroke:#181818;stroke-width:1;"/><polygon fill="#181818" points="1071.82,2349.8438,1075.82,2340.8438,1071.82,2344.8438,1067.82,2340.8438,1071.82,2349.8438" style="stroke:#181818;stroke-width:1;stroke-linejoin:miter;stroke-miterlimit:10;"/></g><!--link ANALYZING to GUIDING--><g class="link" data-entity-1="ent0014" data-entity-2="ent0015" data-link-type="dependency" data-source-line="53" id="lnk49"><path d="M1004.81,2419.5738 C999.28,2424.7538 994.43,2430.6037 990.82,2437.1738 C983.97,2449.6437 987.74,2455.2938 990.82,2469.1738 C992.12,2475.0238 992.2435,2476.0898 993.9435,2481.9798" fill="none" id="ANALYZING-to-GUIDING" style="stroke:#181818;stroke-width:1;"/><polygon fill="#181818" points="995.33,2486.7837,996.6774,2477.0275,993.9435,2481.9798,988.9911,2479.2459,995.33,2486.7837" style="stroke:#181818;stroke-width:1;stroke-linejoin:miter;stroke-miterlimit:10;"/><text fill="#000000" font-family="sans-serif" font-size="13" lengthAdjust="spacing" textLength="110.3032" x="1006.2133" y="2450.2406">stable_count &gt; 5</text><text fill="#000000" font-family="sans-serif" font-size="13" lengthAdjust="spacing" textLength="139.0898" x="991.82" y="2465.3735">&#8594; RECORDING MULAI</text></g><!--link GUIDING to ANALYZING--><g class="link" data-entity-1="ent0015" data-entity-2="ent0014" data-link-type="dependency" data-source-line="63" id="lnk54"><path d="M1141.1,2486.8838 C1141.69,2469.8438 1139.08,2452.9638 1131.82,2437.1738 C1128.9,2430.8138 1128.094,2428.68 1123.334,2423.36" fill="none" id="GUIDING-to-ANALYZING" style="stroke:#181818;stroke-width:1;"/><polygon fill="#181818" points="1120,2419.6338,1123.0202,2429.0081,1123.334,2423.36,1128.9821,2423.6737,1120,2419.6338" style="stroke:#181818;stroke-width:1;stroke-linejoin:miter;stroke-miterlimit:10;"/><text fill="#000000" font-family="sans-serif" font-size="13" lengthAdjust="spacing" textLength="118.46" x="1149.9248" y="2450.2406">pause &gt;3 langkah</text><text fill="#000000" font-family="sans-serif" font-size="13" lengthAdjust="spacing" textLength="136.7095" x="1140.8" y="2465.3735">tanpa recording aktif</text></g></g><g class="start_entity" data-qualified-name="AUDIO_MODE..start.AUDIO_MODE" data-source-line="27" id="ent0037"><ellipse cx="1098" cy="1365.7869" fill="#222222" rx="10" ry="10" style="stroke:#222222;stroke-width:1;"/></g><g class="entity" data-qualified-name="SYNC_MODE.Waiting_HP" data-source-line="74" id="ent0019"><rect fill="#F1F1F1" height="68.8906" rx="12.5" ry="12.5" style="stroke:#181818;stroke-width:0.5;" width="130.1406" x="642.93" y="699.9269"/><line style="stroke:#181818;stroke-width:0.5;" x1="642.93" x2="773.0706" y1="726.2238" y2="726.2238"/><text fill="#000000" font-family="sans-serif" font-size="14" lengthAdjust="spacing" textLength="79.4199" x="668.2904" y="717.922">Waiting_HP</text><text fill="#000000" font-family="sans-serif" font-size="14" lengthAdjust="spacing" textLength="110.1406" x="647.93" y="744.2189">BLE Advertising</text><text fill="#000000" font-family="sans-serif" font-size="14" lengthAdjust="spacing" textLength="97.5078" x="647.93" y="760.5157">"Cheaststrap"</text></g><g class="entity" data-qualified-name="SYNC_MODE.Connected" data-source-line="77" id="ent0020"><rect fill="#F1F1F1" height="68.8906" rx="12.5" ry="12.5" style="stroke:#181818;stroke-width:0.5;" width="193.5439" x="611.23" y="845.8169"/><line style="stroke:#181818;stroke-width:0.5;" x1="611.23" x2="804.7739" y1="872.1138" y2="872.1138"/><text fill="#000000" font-family="sans-serif" font-size="14" lengthAdjust="spacing" textLength="75.3867" x="670.3086" y="863.812">Connected</text><text fill="#000000" font-family="sans-serif" font-size="14" lengthAdjust="spacing" textLength="116.3545" x="616.23" y="890.1089">Tunggu perintah</text><text fill="#000000" font-family="sans-serif" font-size="14" lengthAdjust="spacing" textLength="173.5439" x="616.23" y="906.4057">Kirim "SYNC" dari Flutter</text></g><g class="entity" data-qualified-name="SYNC_MODE.Transferring" data-source-line="80" id="ent0021"><rect fill="#F1F1F1" height="85.1875" rx="12.5" ry="12.5" style="stroke:#181818;stroke-width:0.5;" width="160.8955" x="631.55" y="991.7169"/><line style="stroke:#181818;stroke-width:0.5;" x1="631.55" x2="792.4455" y1="1018.0138" y2="1018.0138"/><text fill="#000000" font-family="sans-serif" font-size="14" lengthAdjust="spacing" textLength="85.7568" x="669.1193" y="1009.712">Transferring</text><text fill="#000000" font-family="sans-serif" font-size="14" lengthAdjust="spacing" textLength="94.5342" x="636.55" y="1036.0089">Baca /run.dat</text><text fill="#000000" font-family="sans-serif" font-size="14" lengthAdjust="spacing" textLength="140.8955" x="636.55" y="1052.3057">Konversi biner&#8594;CSV</text><text fill="#000000" font-family="sans-serif" font-size="14" lengthAdjust="spacing" textLength="138.3389" x="636.55" y="1068.6026">Kirim via BLE Notify</text></g><g class="entity" data-qualified-name="SYNC_MODE.Wait_ACK" data-source-line="83" id="ent0022"><rect fill="#F1F1F1" height="68.8906" rx="12.5" ry="12.5" style="stroke:#181818;stroke-width:0.5;" width="160.9092" x="644.55" y="1153.8969"/><line style="stroke:#181818;stroke-width:0.5;" x1="644.55" x2="805.4592" y1="1180.1938" y2="1180.1938"/><text fill="#000000" font-family="sans-serif" font-size="14" lengthAdjust="spacing" textLength="67.334" x="691.3376" y="1171.892">Wait_ACK</text><text fill="#000000" font-family="sans-serif" font-size="14" lengthAdjust="spacing" textLength="140.9092" x="649.55" y="1198.1889">Tunggu ACK dari HP</text><text fill="#000000" font-family="sans-serif" font-size="14" lengthAdjust="spacing" textLength="127.1826" x="649.55" y="1214.4857">(timeout 30 detik)</text></g><g class="entity" data-qualified-name="SYNC_MODE.Success" data-source-line="87" id="ent0023"><rect fill="#F1F1F1" height="68.8906" rx="12.5" ry="12.5" style="stroke:#181818;stroke-width:0.5;" width="176.6934" x="372.65" y="1331.3469"/><line style="stroke:#181818;stroke-width:0.5;" x1="372.65" x2="549.3434" y1="1357.6438" y2="1357.6438"/><text fill="#000000" font-family="sans-serif" font-size="14" lengthAdjust="spacing" textLength="56.3555" x="432.8189" y="1349.342">Success</text><text fill="#000000" font-family="sans-serif" font-size="14" lengthAdjust="spacing" textLength="107.7549" x="377.65" y="1375.6389">HAPUS /run.dat</text><text fill="#000000" font-family="sans-serif" font-size="14" lengthAdjust="spacing" textLength="156.6934" x="377.65" y="1391.9357">Tunggu user tekan OK</text></g><g class="start_entity" data-qualified-name="SYNC_MODE..start.SYNC_MODE" data-source-line="73" id="ent0057"><ellipse cx="708" cy="604.4869" fill="#222222" rx="10" ry="10" style="stroke:#222222;stroke-width:1;"/></g><g class="entity" data-qualified-name="DEEP_SLEEP" data-source-line="15" id="ent0004"><path d="M969.39,2923.2469 L1240.6135,2923.2469 A12.5,12.5 0 0 1 1253.1135,2935.7469 L1253.1135,2949.5438 L956.89,2949.5438 L956.89,2935.7469 A12.5,12.5 0 0 1 969.39,2923.2469" fill="#F1F1F1"/><rect fill="none" height="234.8869" rx="12.5" ry="12.5" style="stroke:#181818;stroke-width:0.5;" width="296.2235" x="956.89" y="2923.2469"/><line style="stroke:#181818;stroke-width:0.5;" x1="956.89" x2="1253.1135" y1="2949.5438" y2="2949.5438"/><text fill="#000000" font-family="sans-serif" font-size="14" lengthAdjust="spacing" textLength="86.7344" x="1061.6346" y="2941.242">DEEP_SLEEP</text><g class="entity" data-qualified-name="DEEP_SLEEP.Sleep" data-source-line="17" id="ent0005"><rect fill="#F1F1F1" height="52.5938" rx="12.5" ry="12.5" style="stroke:#181818;stroke-width:0.5;" width="225.2832" x="968.89" y="3017.5438"/><line style="stroke:#181818;stroke-width:0.5;" x1="968.89" x2="1194.1732" y1="3043.8406" y2="3043.8406"/><text fill="#000000" font-family="sans-serif" font-size="14" lengthAdjust="spacing" textLength="38.8896" x="1062.0868" y="3035.5389">Sleep</text><text fill="#000000" font-family="sans-serif" font-size="14" lengthAdjust="spacing" textLength="205.2832" x="973.89" y="3061.8357">MOSFET OFF, ESP deep sleep</text></g><g class="start_entity" data-qualified-name="DEEP_SLEEP..start.DEEP_SLEEP" data-source-line="16" id="ent0032"><ellipse cx="1081.53" cy="2970.5438" fill="#222222" rx="10" ry="10" style="stroke:#222222;stroke-width:1;"/></g><g class="end_entity" data-qualified-name="DEEP_SLEEP..end.DEEP_SLEEP" data-source-line="18" id="ent0034"><ellipse cx="1081.53" cy="3134.1338" fill="none" rx="11" ry="11" style="stroke:#222222;stroke-width:1;"/><ellipse cx="1081.53" cy="3134.1338" fill="#222222" rx="6" ry="6" style="stroke:#222222;stroke-width:1;"/></g><!--link *start*DEEP_SLEEP to Sleep--><g class="link" data-entity-1="ent0032" data-entity-2="ent0005" data-link-type="dependency" data-source-line="16" id="lnk33"><path d="M1081.53,2980.8638 C1081.53,2990.0738 1081.53,2999.5738 1081.53,3012.2438" fill="none" id="*start*DEEP_SLEEP-to-Sleep" style="stroke:#181818;stroke-width:1;"/><polygon fill="#181818" points="1081.53,3017.2438,1085.53,3008.2438,1081.53,3012.2438,1077.53,3008.2438,1081.53,3017.2438" style="stroke:#181818;stroke-width:1;stroke-linejoin:miter;stroke-miterlimit:10;"/></g><!--link Sleep to *end*DEEP_SLEEP--><g class="link" data-entity-1="ent0005" data-entity-2="ent0034" data-link-type="dependency" data-source-line="18" id="lnk35"><path d="M1081.53,3070.3738 C1081.53,3087.8938 1081.53,3105.2038 1081.53,3117.9538" fill="none" id="Sleep-to-*end*DEEP_SLEEP" style="stroke:#181818;stroke-width:1;"/><polygon fill="#181818" points="1081.53,3122.9538,1085.53,3113.9538,1081.53,3117.9538,1077.53,3113.9538,1081.53,3122.9538" style="stroke:#181818;stroke-width:1;stroke-linejoin:miter;stroke-miterlimit:10;"/><text fill="#000000" font-family="sans-serif" font-size="13" lengthAdjust="spacing" textLength="145.5835" x="1082.53" y="3101.2006">EXT0 wake (tekan OK)</text></g></g><g class="entity" data-qualified-name="SAFE_MODE" data-source-line="21" id="ent0006"><rect fill="#F1F1F1" height="68.8906" rx="12.5" ry="12.5" style="stroke:#181818;stroke-width:0.5;" width="254.7188" x="58.64" y="570.0369"/><line style="stroke:#181818;stroke-width:0.5;" x1="58.64" x2="313.3588" y1="596.3338" y2="596.3338"/><text fill="#000000" font-family="sans-serif" font-size="14" lengthAdjust="spacing" textLength="85.0869" x="143.4559" y="588.032">SAFE_MODE</text><text fill="#000000" font-family="sans-serif" font-size="14" lengthAdjust="spacing" textLength="124.2295" x="63.64" y="614.3289">boot_attempt &gt; 3</text><text fill="#000000" font-family="sans-serif" font-size="14" lengthAdjust="spacing" textLength="234.7188" x="63.64" y="630.6257">Tampil error, tunggu cabut batrai</text></g><g class="start_entity" data-qualified-name=".start." data-source-line="3" id="ent0024"><ellipse cx="395" cy="53.2969" fill="#222222" rx="10" ry="10" style="stroke:#222222;stroke-width:1;"/></g><!--link *start* to WAKE_UP--><g class="link" data-entity-1="ent0024" data-entity-2="ent0001" data-link-type="dependency" data-source-line="3" id="lnk25"><path d="M395,63.5769 C395,71.0819 395,82.5069 395,95.468 C395,101.9485 395,108.8131 395,115.7637 C395,116.1981 395,116.6329 395,117.0679 C395,117.2854 395,112.5029 395,112.7206" fill="none" id="*start*-to-WAKE_UP" style="stroke:#181818;stroke-width:1;"/><polygon fill="#181818" points="395,117.7206,399,108.7206,395,112.7206,391,108.7206,395,117.7206" style="stroke:#181818;stroke-width:1;stroke-linejoin:miter;stroke-miterlimit:10;"/></g><!--link *start*WAKE_UP to Splash--><g class="link" data-entity-1="ent0026" data-entity-2="ent0002" data-link-type="dependency" data-source-line="6" id="lnk27"><path d="M267,200.7869 C267,214.7169 267,236.2269 267,256.1069" fill="none" id="*start*WAKE_UP-to-Splash" style="stroke:#181818;stroke-width:1;"/><polygon fill="#181818" points="267,261.1069,271,252.1069,267,256.1069,263,252.1069,267,261.1069" style="stroke:#181818;stroke-width:1;stroke-linejoin:miter;stroke-miterlimit:10;"/></g><!--link Splash to CekMode--><g class="link" data-entity-1="ent0002" data-entity-2="ent0003" data-link-type="dependency" data-source-line="8" id="lnk28"><path d="M267,314.1069 C267,336.3669 267,363.4769 267,385.7169" fill="none" id="Splash-to-CekMode" style="stroke:#181818;stroke-width:1;"/><polygon fill="#181818" points="267,390.7169,271,381.7169,267,385.7169,263,381.7169,267,390.7169" style="stroke:#181818;stroke-width:1;stroke-linejoin:miter;stroke-miterlimit:10;"/><text fill="#000000" font-family="sans-serif" font-size="13" lengthAdjust="spacing" textLength="96.7065" x="268" y="356.9538">setelah 1 detik</text></g><!--link CekMode to AUDIO_MODE--><g class="link" data-entity-1="ent0003" data-entity-2="ent0007" data-link-type="dependency" data-source-line="10" id="lnk29"><path d="M368.52,426.9869 C617.26,449.8969 1237,515.7769 1237,603.4869 C1237,603.4869 1237,603.4869 1237,1189.3469 C1237,1242.9469 1297.16,1228.8369 1319,1277.7869 C1320.9163,1282.0819 1322.4858,1286.6125 1323.7645,1291.2587 C1323.9243,1291.8395 1324.0796,1292.422 1324.2304,1293.0062 C1324.2681,1293.1522 1323.0741,1288.4524 1323.1113,1288.5986" fill="none" id="CekMode-to-AUDIO_MODE" style="stroke:#181818;stroke-width:1;"/><polygon fill="#181818" points="1324.3427,1293.4446,1326.0029,1283.7367,1323.1113,1288.5986,1318.2493,1285.707,1324.3427,1293.4446" style="stroke:#181818;stroke-width:1;stroke-linejoin:miter;stroke-miterlimit:10;"/><text fill="#000000" font-family="sans-serif" font-size="13" lengthAdjust="spacing" textLength="134.2656" x="1238" y="884.8338">boot_mode = AUDIO</text></g><!--link CekMode to SYNC_MODE--><g class="link" data-entity-1="ent0003" data-entity-2="ent0018" data-link-type="dependency" data-source-line="11" id="lnk30"><path d="M287.52,443.8069 C301.76,462.8169 320.07,489.9369 331,516.4869 C334.64,525.3294 337.5725,534.9919 339.9267,544.5584 C340.221,545.7543 340.5062,546.9486 340.7827,548.1396 C340.8518,548.4374 339.8053,543.8609 339.8733,544.1582" fill="none" id="CekMode-to-SYNC_MODE" style="stroke:#181818;stroke-width:1;"/><polygon fill="#181818" points="340.9884,549.0322,342.8805,539.3668,339.8733,544.1582,335.082,541.151,340.9884,549.0322" style="stroke:#181818;stroke-width:1;stroke-linejoin:miter;stroke-miterlimit:10;"/><text fill="#000000" font-family="sans-serif" font-size="13" lengthAdjust="spacing" textLength="126.7754" x="328.18" y="504.5538">boot_mode = SYNC</text></g><!--link CekMode to DEEP_SLEEP--><g class="link" data-entity-1="ent0003" data-entity-2="ent0004" data-link-type="dependency" data-source-line="12" id="lnk31"><path d="M165.5,443.5969 C122.48,458.7169 74.64,481.9069 41,516.4869 C11.94,546.3669 6,561.8069 6,603.4869 C6,603.4869 6,603.4869 6,2535.6169 C6,2949.0069 651.3946,3024.4618 951.5046,3037.3818" fill="none" id="CekMode-to-DEEP_SLEEP" style="stroke:#181818;stroke-width:1;"/><polygon fill="#181818" points="956.5,3037.5969,947.6804,3033.2135,951.5046,3037.3818,947.3363,3041.2061,956.5,3037.5969" style="stroke:#181818;stroke-width:1;stroke-linejoin:miter;stroke-miterlimit:10;"/><text fill="#000000" font-family="sans-serif" font-size="13" lengthAdjust="spacing" textLength="172.3198" x="7" y="1461.3038">boot_mode = DEEP_SLEEP</text></g><!--link CekMode to SAFE_MODE--><g class="link" data-entity-1="ent0003" data-entity-2="ent0006" data-link-type="dependency" data-source-line="23" id="lnk36"><path d="M225.29,443.7069 C209.24,455.9669 192.69,472.2069 184,491.4869 C172.97,515.9469 173.6235,541.6491 177.2935,564.6891" fill="none" id="CekMode-to-SAFE_MODE" style="stroke:#181818;stroke-width:1;"/><polygon fill="#181818" points="178.08,569.6269,180.6145,560.1097,177.2935,564.6891,172.7141,561.3681,178.08,569.6269" style="stroke:#181818;stroke-width:1;stroke-linejoin:miter;stroke-miterlimit:10;"/><text fill="#000000" font-family="sans-serif" font-size="13" lengthAdjust="spacing" textLength="119.3486" x="185" y="504.5538">crash 3x beruntun</text></g><!--link *start*AUDIO_MODE to MAIN_MENU--><g class="link" data-entity-1="ent0037" data-entity-2="ent0008" data-link-type="dependency" data-source-line="27" id="lnk38"><path d="M1098,1375.9369 C1098,1397.9369 1098,1449.9769 1098,1489.8569" fill="none" id="*start*AUDIO_MODE-to-MAIN_MENU" style="stroke:#181818;stroke-width:1;"/><polygon fill="#181818" points="1098,1494.8569,1102,1485.8569,1098,1489.8569,1094,1485.8569,1098,1494.8569" style="stroke:#181818;stroke-width:1;stroke-linejoin:miter;stroke-miterlimit:10;"/></g><!--link MAIN_MENU to SCANNING--><g class="link" data-entity-1="ent0008" data-entity-2="ent0009" data-link-type="dependency" data-source-line="31" id="lnk39"><path d="M1073.52,1580.6169 C1067.98,1590.3469 1062.2,1600.6969 1057,1610.4269 C1048.91,1625.5569 1042.5925,1638.0481 1035.5025,1652.4981" fill="none" id="MAIN_MENU-to-SCANNING" style="stroke:#181818;stroke-width:1;"/><polygon fill="#181818" points="1033.3,1656.9869,1040.8554,1650.669,1035.5025,1652.4981,1033.6734,1647.1451,1033.3,1656.9869" style="stroke:#181818;stroke-width:1;stroke-linejoin:miter;stroke-miterlimit:10;"/><text fill="#000000" font-family="sans-serif" font-size="13" lengthAdjust="spacing" textLength="69.5195" x="1058" y="1623.4938">OK &#8594; Scan</text></g><!--link MAIN_MENU to SYNC_MODE--><g class="link" data-entity-1="ent0008" data-entity-2="ent0018" data-link-type="dependency" data-source-line="32" id="lnk40"><path d="M1031.04,1536.2569 C898.88,1533.3769 596.54,1518.0069 357,1440.2369 C292.03,1419.1469 222,1435.0969 222,1366.7869 C222,733.3769 222,733.3769 222,733.3769 C222,669.2769 290.93,688.9669 331,638.9269 C333.555,635.7369 335.9281,632.1306 338.0577,628.4969 C338.59,627.5884 339.1072,626.6783 339.6082,625.7725 C339.8587,625.3196 340.1051,624.8678 340.3474,624.4178 C340.4685,624.1928 340.5886,623.9683 340.7076,623.7443 C340.7671,623.6324 340.8264,623.5205 340.8854,623.4088 C340.9149,623.353 338.615,627.7215 338.6444,627.6657" fill="none" id="MAIN_MENU-to-SYNC_MODE" style="stroke:#181818;stroke-width:1;"/><polygon fill="#181818" points="340.9737,623.2414,333.2415,629.3417,338.6444,627.6657,340.3204,633.0686,340.9737,623.2414" style="stroke:#181818;stroke-width:1;stroke-linejoin:miter;stroke-miterlimit:10;"/><text fill="#000000" font-family="sans-serif" font-size="13" lengthAdjust="spacing" textLength="72.9092" x="249.1396" y="1031.3738">OK &#8594; SYNC</text><text fill="#000000" font-family="sans-serif" font-size="13" lengthAdjust="spacing" textLength="125.1885" x="223" y="1046.5066">(requestBootMode)</text></g><!--link MAIN_MENU to IDLE--><g class="link" data-entity-1="ent0008" data-entity-2="ent0013" data-link-type="dependency" data-source-line="33" id="lnk41"><path d="M1121.72,1580.8769 C1125.98,1590.3169 1129.76,1600.4869 1132,1610.4269 C1138.44,1638.9769 1136.08,1639.4469 1118,1726.3169 C1105.35,1787.0769 1103.98,1806.8269 1066,1855.9069 C1053.25,1872.3769 1038.83,1867.0469 1030,1885.9069 C1023.97,1898.7869 1022.08,1906.0969 1030,1917.9069 C1049.53,1947.0469 1083.19,1918.9569 1103,1947.9069 C1172.8,2049.9269 1108.6,2102.3769 1108,2225.9869 C1107.95,2235.7369 1107.9349,2240.657 1107.8649,2250.677" fill="none" id="MAIN_MENU-to-IDLE" style="stroke:#181818;stroke-width:1;"/><polygon fill="#181818" points="1107.83,2255.6769,1111.8928,2246.705,1107.8649,2250.677,1103.893,2246.6492,1107.83,2255.6769" style="stroke:#181818;stroke-width:1;stroke-linejoin:miter;stroke-miterlimit:10;"/><text fill="#000000" font-family="sans-serif" font-size="13" lengthAdjust="spacing" textLength="66.8091" x="1072.2471" y="1898.9738">OK &#8594; EXIT</text><text fill="#000000" font-family="sans-serif" font-size="13" lengthAdjust="spacing" textLength="149.3032" x="1031" y="1914.1066">(hanya jika terkoneksi)</text></g><!--link IDLE to MAIN_MENU--><g class="link" data-entity-1="ent0013" data-entity-2="ent0008" data-link-type="dependency" data-source-line="66" id="lnk55"><path d="M1210.29,2255.5569 C1218.68,2216.4169 1224,2176.2669 1224,2137.3869 C1224,1690.8669 1224,1690.8669 1224,1690.8669 C1224,1646.3069 1195.3245,1611.0195 1163.3345,1583.9095" fill="none" id="IDLE-to-MAIN_MENU" style="stroke:#181818;stroke-width:1;"/><polygon fill="#181818" points="1159.52,1580.6769,1163.8,1589.5471,1163.3345,1583.9095,1168.9722,1583.444,1159.52,1580.6769" style="stroke:#181818;stroke-width:1;stroke-linejoin:miter;stroke-miterlimit:10;"/><text fill="#000000" font-family="sans-serif" font-size="13" lengthAdjust="spacing" textLength="68.4214" x="1229.5259" y="1898.9738">tombol OK</text><text fill="#000000" font-family="sans-serif" font-size="13" lengthAdjust="spacing" textLength="77.4731" x="1225" y="1914.1066">(long press)</text></g><!--link SCANNING to SELECTING--><g class="link" data-entity-1="ent0009" data-entity-2="ent0010" data-link-type="dependency" data-source-line="36" id="lnk42"><path d="M950.49,1726.7269 C940.23,1734.9769 931.04,1744.8069 925,1756.3169 C916.56,1772.3869 923.1735,1785.925 936.0135,1799.495" fill="none" id="SCANNING-to-SELECTING" style="stroke:#181818;stroke-width:1;"/><polygon fill="#181818" points="939.45,1803.1269,936.1698,1793.8403,936.0135,1799.495,930.3588,1799.3387,939.45,1803.1269" style="stroke:#181818;stroke-width:1;stroke-linejoin:miter;stroke-miterlimit:10;"/><text fill="#000000" font-family="sans-serif" font-size="13" lengthAdjust="spacing" textLength="78.9902" x="926" y="1769.3838">scan selesai</text></g><!--link SELECTING to SCANNING--><g class="link" data-entity-1="ent0010" data-entity-2="ent0009" data-link-type="dependency" data-source-line="40" id="lnk44"><path d="M992.67,1802.8369 C998.99,1793.9969 1005.2,1783.7069 1009,1773.3169 C1014.4,1758.5469 1016.349,1746.3001 1017.119,1731.5701" fill="none" id="SELECTING-to-SCANNING" style="stroke:#181818;stroke-width:1;"/><polygon fill="#181818" points="1017.38,1726.5769,1012.9156,1735.3558,1017.119,1731.5701,1020.9047,1735.7734,1017.38,1726.5769" style="stroke:#181818;stroke-width:1;stroke-linejoin:miter;stroke-miterlimit:10;"/><text fill="#000000" font-family="sans-serif" font-size="13" lengthAdjust="spacing" textLength="81.3833" x="1014.73" y="1769.3838">OK &#8594; rescan</text></g><!--link SELECTING to PAIRING--><g class="link" data-entity-1="ent0010" data-entity-2="ent0011" data-link-type="dependency" data-source-line="39" id="lnk43"><path d="M943.36,1856.3169 C935.95,1864.9269 928.91,1875.1069 925,1885.9069 C920.16,1899.2869 919.53,1904.7769 925,1917.9069 C929.57,1928.8869 933.6208,1935.3171 941.9108,1944.0171" fill="none" id="SELECTING-to-PAIRING" style="stroke:#181818;stroke-width:1;"/><polygon fill="#181818" points="945.36,1947.6369,942.0473,1938.3619,941.9108,1944.0171,936.2556,1943.8806,945.36,1947.6369" style="stroke:#181818;stroke-width:1;stroke-linejoin:miter;stroke-miterlimit:10;"/><text fill="#000000" font-family="sans-serif" font-size="13" lengthAdjust="spacing" textLength="63.0894" x="926" y="1906.4738">OK &#8594; pair</text></g><!--link PAIRING to MENU_PATTERN--><g class="link" data-entity-1="ent0011" data-entity-2="ent0012" data-link-type="dependency" data-source-line="43" id="lnk45"><path d="M992.33,2017.0969 C994.55,2039.5769 996.989,2064.321 999.359,2088.341" fill="none" id="PAIRING-to-MENU_PATTERN" style="stroke:#181818;stroke-width:1;"/><polygon fill="#181818" points="999.85,2093.3169,1002.947,2083.9676,999.359,2088.341,994.9856,2084.7531,999.85,2093.3169" style="stroke:#181818;stroke-width:1;stroke-linejoin:miter;stroke-miterlimit:10;"/><text fill="#000000" font-family="sans-serif" font-size="13" lengthAdjust="spacing" textLength="82.2148" x="997.5" y="2059.8638">CONNECTED</text></g><!--link MENU_PATTERN to IDLE--><g class="link" data-entity-1="ent0012" data-entity-2="ent0013" data-link-type="dependency" data-source-line="46" id="lnk46"><path d="M1014.71,2179.4169 C1019.92,2199.8369 1025.4251,2221.4218 1032.8751,2250.6518" fill="none" id="MENU_PATTERN-to-IDLE" style="stroke:#181818;stroke-width:1;"/><polygon fill="#181818" points="1034.11,2255.4969,1035.7633,2245.7878,1032.8751,2250.6518,1028.0111,2247.7636,1034.11,2255.4969" style="stroke:#181818;stroke-width:1;stroke-linejoin:miter;stroke-miterlimit:10;"/><text fill="#000000" font-family="sans-serif" font-size="13" lengthAdjust="spacing" textLength="72.5601" x="1026.82" y="2222.0538">OK &#8594; Mulai</text></g><!--link IDLE to DEEP_SLEEP--><g class="link" data-entity-1="ent0013" data-entity-2="ent0004" data-link-type="dependency" data-source-line="68" id="lnk56"><path d="M1105,2813.4569 C1105,2851.9169 1105,2884.5669 1105,2917.7669" fill="none" id="IDLE-to-DEEP_SLEEP" style="stroke:#181818;stroke-width:1;"/><polygon fill="#181818" points="1105,2922.7669,1109,2913.7669,1105,2917.7669,1101,2913.7669,1105,2922.7669" style="stroke:#181818;stroke-width:1;stroke-linejoin:miter;stroke-miterlimit:10;"/><text fill="#000000" font-family="sans-serif" font-size="13" lengthAdjust="spacing" textLength="68.4214" x="1106" y="2874.3138">tombol OK</text><text fill="#000000" font-family="sans-serif" font-size="13" lengthAdjust="spacing" textLength="65.9268" x="1107.2473" y="2889.4466">(&gt;2 detik)</text></g><!--link *start*SYNC_MODE to Waiting_HP--><g class="link" data-entity-1="ent0057" data-entity-2="ent0019" data-link-type="dependency" data-source-line="73" id="lnk58"><path d="M708,614.6869 C708,632.2069 708,666.1869 708,694.7069" fill="none" id="*start*SYNC_MODE-to-Waiting_HP" style="stroke:#181818;stroke-width:1;"/><polygon fill="#181818" points="708,699.7069,712,690.7069,708,694.7069,704,690.7069,708,699.7069" style="stroke:#181818;stroke-width:1;stroke-linejoin:miter;stroke-miterlimit:10;"/></g><!--link Waiting_HP to Connected--><g class="link" data-entity-1="ent0019" data-entity-2="ent0020" data-link-type="dependency" data-source-line="75" id="lnk59"><path d="M708,769.1169 C708,792.2069 708,817.6969 708,840.7469" fill="none" id="Waiting_HP-to-Connected" style="stroke:#181818;stroke-width:1;"/><polygon fill="#181818" points="708,845.7469,712,836.7469,708,840.7469,704,836.7469,708,845.7469" style="stroke:#181818;stroke-width:1;stroke-linejoin:miter;stroke-miterlimit:10;"/><text fill="#000000" font-family="sans-serif" font-size="13" lengthAdjust="spacing" textLength="73.5693" x="709" y="811.8838">HP connect</text></g><!--link Connected to Transferring--><g class="link" data-entity-1="ent0020" data-entity-2="ent0021" data-link-type="dependency" data-source-line="78" id="lnk60"><path d="M708.89,915.0069 C709.48,937.4969 710.129,962.2086 710.759,986.2386" fill="none" id="Connected-to-Transferring" style="stroke:#181818;stroke-width:1;"/><polygon fill="#181818" points="710.89,991.2369,714.6528,982.1351,710.759,986.2386,706.6555,982.3448,710.89,991.2369" style="stroke:#181818;stroke-width:1;stroke-linejoin:miter;stroke-miterlimit:10;"/><text fill="#000000" font-family="sans-serif" font-size="13" lengthAdjust="spacing" textLength="93.7676" x="711" y="957.7838">terima "SYNC"</text></g><!--link Transferring to Wait_ACK--><g class="link" data-entity-1="ent0021" data-entity-2="ent0022" data-link-type="dependency" data-source-line="81" id="lnk61"><path d="M715.59,1077.2569 C717.65,1101.3369 719.7754,1126.1949 721.6954,1148.7249" fill="none" id="Transferring-to-Wait_ACK" style="stroke:#181818;stroke-width:1;"/><polygon fill="#181818" points="722.12,1153.7069,725.3413,1144.3997,721.6954,1148.7249,717.3702,1145.079,722.12,1153.7069" style="stroke:#181818;stroke-width:1;stroke-linejoin:miter;stroke-miterlimit:10;"/><text fill="#000000" font-family="sans-serif" font-size="13" lengthAdjust="spacing" textLength="81.2563" x="720.28" y="1119.9638">EOF terkirim</text></g><!--link Wait_ACK to Success--><g class="link" data-entity-1="ent0022" data-entity-2="ent0023" data-link-type="dependency" data-source-line="84" id="lnk62"><path d="M715.25,1223.2869 C709.27,1239.1069 700.16,1257.1869 687,1269.7869 C649.11,1306.0669 600.0855,1327.9236 554.4855,1342.4036" fill="none" id="Wait_ACK-to-Success" style="stroke:#181818;stroke-width:1;"/><polygon fill="#181818" points="549.72,1343.9169,559.5085,1345.0054,554.4855,1342.4036,557.0873,1337.3806,549.72,1343.9169" style="stroke:#181818;stroke-width:1;stroke-linejoin:miter;stroke-miterlimit:10;"/><text fill="#000000" font-family="sans-serif" font-size="13" lengthAdjust="spacing" textLength="77.5303" x="701.62" y="1265.8538">terima "OK"</text></g><!--link Wait_ACK to AUDIO_MODE--><g class="link" data-entity-1="ent0022" data-entity-2="ent0007" data-link-type="dependency" data-source-line="85" id="lnk63"><path d="M805.83,1210.3669 C883.28,1229.5169 1003.76,1256.7469 1110,1269.7869 C1121.53,1271.2069 1310.57,1269.7969 1319,1277.7869 C1322.4675,1281.0744 1325.2028,1284.8702 1327.3336,1288.9994 C1327.8663,1290.0317 1328.3612,1291.0848 1328.8204,1292.156 C1329.0499,1292.6917 1327.4566,1288.5725 1327.6685,1289.1168" fill="none" id="Wait_ACK-to-AUDIO_MODE" style="stroke:#181818;stroke-width:1;"/><polygon fill="#181818" points="1329.4825,1293.7761,1329.9448,1283.9381,1327.6685,1289.1168,1322.4898,1286.8405,1329.4825,1293.7761" style="stroke:#181818;stroke-width:1;stroke-linejoin:miter;stroke-miterlimit:10;"/><text fill="#000000" font-family="sans-serif" font-size="13" lengthAdjust="spacing" textLength="99.3535" x="1111" y="1265.8538">timeout / gagal</text></g><!--link Success to AUDIO_MODE--><g class="link" data-entity-1="ent0023" data-entity-2="ent0007" data-link-type="dependency" data-source-line="88" id="lnk64"><path d="M494.22,1330.9269 C517.13,1309.5169 549.58,1284.0469 584,1272.4669 C626.97,1258.0069 640.67,1272.2769 686,1272.4669 C756.34,1272.7569 1267.26,1230.1469 1319,1277.7869 C1322.385,1280.9056 1325.0866,1284.5019 1327.2184,1288.4209 C1327.7513,1289.4007 1328.2487,1290.4006 1328.7122,1291.4183 C1328.9439,1291.9271 1329.1672,1292.4404 1329.3823,1292.9578 C1329.4898,1293.2165 1327.7515,1288.8286 1327.8549,1289.0894" fill="none" id="Success-to-AUDIO_MODE" style="stroke:#181818;stroke-width:1;"/><polygon fill="#181818" points="1329.6987,1293.737,1330.098,1283.8962,1327.8549,1289.0894,1322.6618,1286.8463,1329.6987,1293.737" style="stroke:#181818;stroke-width:1;stroke-linejoin:miter;stroke-miterlimit:10;"/><text fill="#000000" font-family="sans-serif" font-size="13" lengthAdjust="spacing" textLength="100.7563" x="585" y="1265.8538">user konfirmasi</text></g><!--link AUDIO_MODE to DEEP_SLEEP--><g class="link" data-entity-1="ent0007" data-entity-2="ent0004" data-link-type="dependency" data-source-line="91" id="lnk65"><path d="M1335.0856,1390.573 C1335.1433,1390.7551 1335.2013,1390.938 1335.2594,1391.1219 C1335.3757,1391.4895 1335.4927,1391.8606 1335.6104,1392.2351 C1336.5524,1395.2312 1337.5412,1398.446 1338.5605,1401.8542 C1340.5992,1408.6706 1342.76,1416.2606 1344.9125,1424.4219 C1353.5225,1457.0669 1362,1498.8519 1362,1536.8269 C1362,1536.8269 1362,1536.8269 1362,2535.6169 C1362,2678.0769 1386.59,2727.8469 1319,2853.2469 C1302.58,2883.7269 1282.6697,2908.0576 1257.1797,2932.3476" fill="none" id="AUDIO_MODE-to-DEEP_SLEEP" style="stroke:#181818;stroke-width:1;"/><polygon fill="#181818" points="1253.56,2935.7969,1262.8349,2932.4839,1257.1797,2932.3476,1257.316,2926.6924,1253.56,2935.7969" style="stroke:#181818;stroke-width:1;stroke-linejoin:miter;stroke-miterlimit:10;"/><text fill="#000000" font-family="sans-serif" font-size="13" lengthAdjust="spacing" textLength="95.1196" x="1363" y="1906.4738">battery critical</text></g><?plantuml-src RLRTRk965BxtKvnoqr1baqrGRv0QoG4J461Rs2IxBHKQp0IccB5tFCuMLP7sgjTLjUrrdorFqZCpDhPXfIZ9dFc-C-V_M38PKmWaaHIc9DeoJk7jorVeo6I_IkBWm2Eu6759Du9a37pAystRidxvuLTuz-uEdkonivpxbfLf3SKH_h00IaYGnYJRei3y0rreAHZC_UyWE6IIxc56oVhGgY2ArgExQRAc2C-ef37PmWsigMGxX5LtzoGYi4eIkTmhmPe81kvZKCCeNVQyF_AMKw_l8AL2_sGkJi31HxVtBQoIdq3xZkClWmd-Fi5M5zPh6PiQk16UcD9KkQx-efgf5moS4Bp1u1ASm4UVKPmrG8gcw5rmFeJluJFPKRYGT4SuUEDszM9W3vo69qHYj5C9Tz1Py93iKnO35I8Hbo1pljda495LBc55f23CiXfXgIcBXCfIvtTOKP5pf5hMz_3spr_cnqGLDFOeB4ogPQ8UXAazSfTJnvrRA3mUyAMRAmXwjel1Unprd0M_lT9vMF3E5Je_2fjuRIV2tP7xW6Hl36z__Wr1HFWvh9Rb4gSLNmZwAQUPlCU0AUVRPzHHVr9ZAIkGjINyGE0tjYCWgTWbdEuorbRcrGnIbe1zs_U14f5k4OJCs_Uchjjrh3RHcJYzq30pnSneJ3EL5sZS-IncMzJnmgAY0sAMoGP8gVFjqQmHbvGmSOOw3v-Wwd7rQALXcA-mNbJ1OUbLlcHidw9iQlUKtFHXIT9fnX0kVJiCdPcBMdgUw-BJJbzdiNbddFAJc81BKf8j-Dk__q6dUmiNCsTYVsWRmMtt1YvyxycPjKzrdATgciScUbYiNx_WJp7t7eZoXl0kpER6UNEDI5ErMesgrwfYRTUUVFmPiPOM7u_uchqdaW4JP4yW9YfCsmNVCjLX4FZJImYNv6LpgNIlOhgC4coX4oNgXOVvg5yalmR4tlqHNKTlPaxFcsd4T3wnHyOEOsz9DIRNZ8uaUw65q1oKlVcQ9H3b58QZsTo_lf_RxiE2VnPCqacoSRWK1v2CfAKtJGMwjaYUqJNgkkkK8DYhQgMo01yHvhMXe-AyuDx4wMDVX7Ou3senRN0gov6EHksfZWZEhfXiM1cCO3vrDE_LHAACGIDPg21LIcjsBhWaF2LOvb4YrWnpH7QIFLk58ftwneX27MOtObbX-yO9Kb9iagpTm3TsGvrmTrls-sjpRAhvy-sfMGsh-j1y8aoYlSkXZyBgeBOYsc2lNwYGB4FXWhTwMqeocU5OJrjDjDwr2USqaZe_A8hCKRbJlmdDYaYfO1Wp3DoO2RQ7bhAkPGRF8CvnnOW6KJqG2iApPrmrAhvTDI4PDeTXgcTExlLMlyRLShKc4jz9EFg2Nnyh_3eHcEvUy5Y-_iA8TjTDC6c7KrLbc9PsRwpMfJVGqranhI8CnLNXd3feJuO-fagoFKrm7tPg8_h8qTCoZoBCVCqbRzmw1JM-FagLrx0X6nBhMNvKChHzR8FAyS8eB5W1vNwl4SwKQo3kdcSczlYrfWgiTd_-nQA-1x2t8smg5g4n_mC0?></g></svg>