<svg xmlns="http://www.w3.org/2000/svg" xmlns:xlink="http://www.w3.org/1999/xlink" contentStyleType="text/css" data-diagram-type="STATE" height="673px" preserveAspectRatio="none" style="width:2575px;height:673px;background:#FFFFFF;" version="1.1" viewBox="0 0 2575 673" width="2575px" zoomAndPan="magnify"><?plantuml 1.2026.6?><defs/><g><g class="title" data-source-line="1"><text fill="#000000" font-family="sans-serif" font-size="14" font-weight="700" lengthAdjust="spacing" textLength="220.6162" x="1174.0769" y="22.9951">State Machine 3tombolSync</text></g><g class="entity" data-qualified-name="MENU" data-source-line="12" id="ent0001"><rect fill="#FFFFE0" height="61.9063" rx="12.5" ry="12.5" style="stroke:#181818;stroke-width:0.5;" width="142.7949" x="7" y="337.2969"/><line style="stroke:#181818;stroke-width:0.5;" x1="7" x2="149.7949" y1="361.2656" y2="361.2656"/><text fill="#000000" font-family="sans-serif" font-size="12" lengthAdjust="spacing" textLength="35.6953" x="60.5498" y="353.4355">MENU</text><text fill="#000000" font-family="sans-serif" font-size="12" lengthAdjust="spacing" textLength="70.5879" x="12" y="377.4043">MAIN MENU</text><text fill="#000000" font-family="sans-serif" font-size="12" lengthAdjust="spacing" textLength="122.7949" x="12" y="391.373">1.Scan 2.Sync 3.Exit</text></g><g class="entity" data-qualified-name="SCAN" data-source-line="13" id="ent0002"><rect fill="#ADD8E6" height="61.9063" rx="12.5" ry="12.5" style="stroke:#181818;stroke-width:0.5;" width="83.9727" x="318.21" y="379.2969"/><line style="stroke:#181818;stroke-width:0.5;" x1="318.21" x2="402.1827" y1="403.2656" y2="403.2656"/><text fill="#000000" font-family="sans-serif" font-size="12" lengthAdjust="spacing" textLength="33.1816" x="343.6055" y="395.4355">SCAN</text><text fill="#000000" font-family="sans-serif" font-size="12" lengthAdjust="spacing" textLength="63.9727" x="323.21" y="419.4043">SCANNING</text><text fill="#000000" font-family="sans-serif" font-size="12" lengthAdjust="spacing" textLength="58.4355" x="323.21" y="433.373">(20 detik)</text></g><g class="entity" data-qualified-name="PAIR" data-source-line="14" id="ent0003"><rect fill="#F1F1F1" height="50" rx="12.5" ry="12.5" style="stroke:#181818;stroke-width:0.5;" width="109.4609" x="556.61" y="394.2469"/><line style="stroke:#181818;stroke-width:0.5;" x1="556.61" x2="666.0709" y1="418.2156" y2="418.2156"/><text fill="#000000" font-family="sans-serif" font-size="12" lengthAdjust="spacing" textLength="27.3223" x="597.6793" y="410.3855">PAIR</text><text fill="#000000" font-family="sans-serif" font-size="12" lengthAdjust="spacing" textLength="89.4609" x="561.61" y="434.3543">Pair &amp; Connect</text></g><g class="entity" data-qualified-name="POLA" data-source-line="15" id="ent0004"><rect fill="#F1F1F1" height="61.9063" rx="12.5" ry="12.5" style="stroke:#181818;stroke-width:0.5;" width="73.9238" x="819.1" y="381.2969"/><line style="stroke:#181818;stroke-width:0.5;" x1="819.1" x2="893.0238" y1="405.2656" y2="405.2656"/><text fill="#000000" font-family="sans-serif" font-size="12" lengthAdjust="spacing" textLength="31.5762" x="840.2738" y="397.4355">POLA</text><text fill="#000000" font-family="sans-serif" font-size="12" lengthAdjust="spacing" textLength="53.9238" x="824.1" y="421.4043">Pilih Pola</text><text fill="#000000" font-family="sans-serif" font-size="12" lengthAdjust="spacing" textLength="50.2969" x="824.1" y="435.373">3:2 / 2:1</text></g><g class="entity" data-qualified-name="IDLE" data-source-line="26" id="ent0005"><rect fill="#90EE90" height="50" rx="12.5" ry="12.5" style="stroke:#181818;stroke-width:0.5;" width="50" x="1049.07" y="411.2469"/><line style="stroke:#181818;stroke-width:0.5;" x1="1049.07" x2="1099.07" y1="435.2156" y2="435.2156"/><text fill="#000000" font-family="sans-serif" font-size="12" lengthAdjust="spacing" textLength="27.0469" x="1060.5466" y="427.3855">IDLE</text></g><g class="entity" data-qualified-name="ANALYZING" data-source-line="31" id="ent0006"><rect fill="#F1F1F1" height="61.9063" rx="12.5" ry="12.5" style="stroke:#181818;stroke-width:0.5;" width="93.7695" x="31.51" y="57.2969"/><line style="stroke:#181818;stroke-width:0.5;" x1="31.51" x2="125.2795" y1="81.2656" y2="81.2656"/><text fill="#000000" font-family="sans-serif" font-size="12" lengthAdjust="spacing" textLength="69.4453" x="43.6721" y="73.4355">ANALYZING</text><text fill="#000000" font-family="sans-serif" font-size="12" lengthAdjust="spacing" textLength="73.7695" x="36.51" y="97.4043">Amati irama</text><text fill="#000000" font-family="sans-serif" font-size="12" lengthAdjust="spacing" textLength="67.4941" x="36.51" y="111.373">hitung SPM</text></g><g class="entity" data-qualified-name="GUIDING" data-source-line="32" id="ent0007"><rect fill="#F1F1F1" height="61.9063" rx="12.5" ry="12.5" style="stroke:#181818;stroke-width:0.5;" width="120.8105" x="299.79" y="44.2969"/><line style="stroke:#181818;stroke-width:0.5;" x1="299.79" x2="420.6005" y1="68.2656" y2="68.2656"/><text fill="#000000" font-family="sans-serif" font-size="12" lengthAdjust="spacing" textLength="52.6758" x="333.8574" y="60.4355">GUIDING</text><text fill="#000000" font-family="sans-serif" font-size="12" lengthAdjust="spacing" textLength="62.666" x="304.79" y="84.4043">Audio CUE</text><text fill="#000000" font-family="sans-serif" font-size="12" lengthAdjust="spacing" textLength="100.8105" x="304.79" y="98.373">LOG per langkah</text></g><g class="entity" data-qualified-name="SYNC" data-source-line="38" id="ent0008"><path d="M1748.24,178.7869 L2548.27,178.7869 A12.5,12.5 0 0 1 2560.77,191.2869 L2560.77,202.7556 L1735.74,202.7556 L1735.74,191.2869 A12.5,12.5 0 0 1 1748.24,178.7869" fill="#D8BFD8"/><path d="M1735.74,202.7556 L2560.77,202.7556 L2560.77,315.2019 A12.5,12.5 0 0 1 2548.27,327.7019 L1748.24,327.7019 A12.5,12.5 0 0 1 1735.74,315.2019 L1735.74,202.7556" fill="#D8BFD8"/><rect fill="none" height="148.915" rx="12.5" ry="12.5" style="stroke:#181818;stroke-width:0.5;" width="825.03" x="1735.74" y="178.7869"/><line style="stroke:#181818;stroke-width:0.5;" x1="1735.74" x2="2560.77" y1="202.7556" y2="202.7556"/><text fill="#000000" font-family="sans-serif" font-size="12" lengthAdjust="spacing" textLength="32.3027" x="2132.1036" y="194.9255">SYNC</text><g class="entity" data-qualified-name="SYNC.Wait" data-source-line="40" id="ent0009"><rect fill="#F1F1F1" height="50" rx="12.5" ry="12.5" style="stroke:#181818;stroke-width:0.5;" width="113.5508" x="1803.74" y="258.7556"/><line style="stroke:#181818;stroke-width:0.5;" x1="1803.74" x2="1917.2908" y1="282.7244" y2="282.7244"/><text fill="#000000" font-family="sans-serif" font-size="12" lengthAdjust="spacing" textLength="27.2578" x="1846.8865" y="274.8943">Wait</text><text fill="#000000" font-family="sans-serif" font-size="12" lengthAdjust="spacing" textLength="93.5508" x="1808.74" y="298.863">BLE advertising</text></g><g class="entity" data-qualified-name="SYNC.TX" data-source-line="42" id="ent0010"><rect fill="#F1F1F1" height="61.9063" rx="12.5" ry="12.5" style="stroke:#181818;stroke-width:0.5;" width="101.0293" x="2030.29" y="252.7956"/><line style="stroke:#181818;stroke-width:0.5;" x1="2030.29" x2="2131.3193" y1="276.7644" y2="276.7644"/><text fill="#000000" font-family="sans-serif" font-size="12" lengthAdjust="spacing" textLength="15.5508" x="2073.0293" y="268.9343">TX</text><text fill="#000000" font-family="sans-serif" font-size="12" lengthAdjust="spacing" textLength="81.0293" x="2035.29" y="292.903">Baca /run.dat</text><text fill="#000000" font-family="sans-serif" font-size="12" lengthAdjust="spacing" textLength="58.2598" x="2035.29" y="306.8718">kirim CSV</text></g><g class="entity" data-qualified-name="SYNC.ACK" data-source-line="44" id="ent0011"><rect fill="#F1F1F1" height="50" rx="12.5" ry="12.5" style="stroke:#181818;stroke-width:0.5;" width="94.9238" x="2194.32" y="258.7556"/><line style="stroke:#181818;stroke-width:0.5;" x1="2194.32" x2="2289.2438" y1="282.7244" y2="282.7244"/><text fill="#000000" font-family="sans-serif" font-size="12" lengthAdjust="spacing" textLength="24.457" x="2229.5534" y="274.8943">ACK</text><text fill="#000000" font-family="sans-serif" font-size="12" lengthAdjust="spacing" textLength="74.9238" x="2199.32" y="298.863">tunggu "OK"</text></g><g class="entity" data-qualified-name="SYNC.Done" data-source-line="46" id="ent0012"><rect fill="#F1F1F1" height="50" rx="12.5" ry="12.5" style="stroke:#181818;stroke-width:0.5;" width="78.5234" x="2400.24" y="214.7556"/><line style="stroke:#181818;stroke-width:0.5;" x1="2400.24" x2="2478.7634" y1="238.7244" y2="238.7244"/><text fill="#000000" font-family="sans-serif" font-size="12" lengthAdjust="spacing" textLength="31.5703" x="2423.7166" y="230.8943">Done</text><text fill="#000000" font-family="sans-serif" font-size="12" lengthAdjust="spacing" textLength="58.5234" x="2405.24" y="254.863">hapus file</text></g><g class="start_entity" data-qualified-name="SYNC..start.SYNC" data-source-line="39" id="ent0032"><ellipse cx="1756.74" cy="283.7556" fill="#222222" rx="10" ry="10" style="stroke:#222222;stroke-width:1;"/></g><g class="end_entity" data-qualified-name="SYNC..end.SYNC" data-source-line="47" id="ent0037"><ellipse cx="2526.77" cy="287.7556" fill="none" rx="11" ry="11" style="stroke:#222222;stroke-width:1;"/><ellipse cx="2526.77" cy="287.7556" fill="#222222" rx="6" ry="6" style="stroke:#222222;stroke-width:1;"/></g><!--link *start*SYNC to Wait--><g class="link" data-entity-1="ent0032" data-entity-2="ent0009" data-link-type="dependency" data-source-line="39" id="lnk33"><path d="M1767.13,283.7556 C1775.79,283.7556 1784.42,283.7556 1798.57,283.7556" fill="none" id="*start*SYNC-to-Wait" style="stroke:#181818;stroke-width:1;"/><polygon fill="#181818" points="1803.57,283.7556,1794.57,279.7556,1798.57,283.7556,1794.57,287.7556,1803.57,283.7556" style="stroke:#181818;stroke-width:1;stroke-linejoin:miter;stroke-miterlimit:10;"/></g><!--link Wait to TX--><g class="link" data-entity-1="ent0009" data-entity-2="ent0010" data-link-type="dependency" data-source-line="41" id="lnk34"><path d="M1917.73,283.7556 C1952.47,283.7556 1991.65,283.7556 2025.1,283.7556" fill="none" id="Wait-to-TX" style="stroke:#181818;stroke-width:1;"/><polygon fill="#181818" points="2030.1,283.7556,2021.1,279.7556,2025.1,283.7556,2021.1,287.7556,2030.1,283.7556" style="stroke:#181818;stroke-width:1;stroke-linejoin:miter;stroke-miterlimit:10;"/><text fill="#000000" font-family="sans-serif" font-size="13" lengthAdjust="spacing" textLength="75.4609" x="1936.29" y="279.8225">HP&#8594;"SYNC"</text></g><!--link TX to ACK--><g class="link" data-entity-1="ent0010" data-entity-2="ent0011" data-link-type="dependency" data-source-line="43" id="lnk35"><path d="M2131.67,283.7556 C2151.61,283.7556 2169.46,283.7556 2189.07,283.7556" fill="none" id="TX-to-ACK" style="stroke:#181818;stroke-width:1;"/><polygon fill="#181818" points="2194.07,283.7556,2185.07,279.7556,2189.07,283.7556,2185.07,287.7556,2194.07,283.7556" style="stroke:#181818;stroke-width:1;stroke-linejoin:miter;stroke-miterlimit:10;"/><text fill="#000000" font-family="sans-serif" font-size="13" lengthAdjust="spacing" textLength="25.9238" x="2150.32" y="279.8225">EOF</text></g><!--link ACK to Done--><g class="link" data-entity-1="ent0011" data-entity-2="ent0012" data-link-type="dependency" data-source-line="45" id="lnk36"><path d="M2289.66,273.2156 C2323.36,265.6356 2363.3817,256.6419 2395.0217,249.5319" fill="none" id="ACK-to-Done" style="stroke:#181818;stroke-width:1;"/><polygon fill="#181818" points="2399.9,248.4356,2390.242,246.5062,2395.0217,249.5319,2391.996,254.3115,2399.9,248.4356" style="stroke:#181818;stroke-width:1;stroke-linejoin:miter;stroke-miterlimit:10;"/><text fill="#000000" font-family="sans-serif" font-size="13" lengthAdjust="spacing" textLength="73.3091" x="2308.24" y="248.8225">terima ACK</text></g><!--link Done to *end*SYNC--><g class="link" data-entity-1="ent0012" data-entity-2="ent0037" data-link-type="dependency" data-source-line="47" id="lnk38"><path d="M2479.15,261.5056 C2493.07,269.3456 2503.2029,275.0529 2512.2629,280.1529" fill="none" id="Done-to-*end*SYNC" style="stroke:#181818;stroke-width:1;"/><polygon fill="#181818" points="2516.62,282.6056,2510.7393,274.7051,2512.2629,280.1529,2506.8151,281.6765,2516.62,282.6056" style="stroke:#181818;stroke-width:1;stroke-linejoin:miter;stroke-miterlimit:10;"/></g><!--link ACK to *end*SYNC--><g class="link" data-entity-1="ent0011" data-entity-2="ent0037" data-link-type="dependency" data-source-line="48" id="lnk39"><path d="M2289.35,286.8256 C2336.95,289.5656 2413.02,292.8456 2478.77,290.7556 C2491.35,290.3556 2500.8146,289.7279 2510.3346,288.9979" fill="none" id="ACK-to-*end*SYNC" style="stroke:#181818;stroke-width:1;"/><polygon fill="#181818" points="2515.32,288.6156,2506.0405,285.3154,2510.3346,288.9979,2506.6522,293.292,2515.32,288.6156" style="stroke:#181818;stroke-width:1;stroke-linejoin:miter;stroke-miterlimit:10;"/><text fill="#000000" font-family="sans-serif" font-size="13" lengthAdjust="spacing" textLength="50.6606" x="2414.51" y="286.8225">timeout</text></g></g><g class="entity" data-qualified-name="SLEEP" data-source-line="54" id="ent0013"><rect fill="#F1F1F1" height="61.9063" rx="12.5" ry="12.5" style="stroke:#181818;stroke-width:0.5;" width="115.2207" x="1231.07" y="416.2969"/><line style="stroke:#181818;stroke-width:0.5;" x1="1231.07" x2="1346.2907" y1="440.2656" y2="440.2656"/><text fill="#000000" font-family="sans-serif" font-size="12" lengthAdjust="spacing" textLength="36.7031" x="1270.3288" y="432.4355">SLEEP</text><text fill="#000000" font-family="sans-serif" font-size="12" lengthAdjust="spacing" textLength="76.2949" x="1236.07" y="456.4043">MOSFET OFF</text><text fill="#000000" font-family="sans-serif" font-size="12" lengthAdjust="spacing" textLength="95.2207" x="1236.07" y="470.373">esp_deep_sleep</text></g><g class="start_entity" data-qualified-name=".start." data-source-line="6" id="ent0014"><ellipse cx="1288.68" cy="647.2469" fill="#222222" rx="10" ry="10" style="stroke:#222222;stroke-width:1;"/></g><g class="entity" data-qualified-name="BOOT" data-source-line="6" id="ent0015"><rect fill="#F1F1F1" height="50" rx="12.5" ry="12.5" style="stroke:#181818;stroke-width:0.5;" width="54.4531" x="1536.29" y="479.2469"/><line style="stroke:#181818;stroke-width:0.5;" x1="1536.29" x2="1590.7431" y1="503.2156" y2="503.2156"/><text fill="#000000" font-family="sans-serif" font-size="12" lengthAdjust="spacing" textLength="34.4531" x="1546.29" y="495.3855">BOOT</text></g><g class="entity" data-qualified-name="SAFE_MODE" data-source-line="7" id="ent0017"><rect fill="#F1F1F1" height="50" rx="12.5" ry="12.5" style="stroke:#181818;stroke-width:0.5;" width="92.9316" x="2101.79" y="479.2469"/><line style="stroke:#181818;stroke-width:0.5;" x1="2101.79" x2="2194.7216" y1="503.2156" y2="503.2156"/><text fill="#000000" font-family="sans-serif" font-size="12" lengthAdjust="spacing" textLength="72.9316" x="2111.79" y="495.3855">SAFE_MODE</text></g><!--link *start* to BOOT--><g class="link" data-entity-1="ent0014" data-entity-2="ent0015" data-link-type="dependency" data-source-line="6" id="lnk16"><path d="M1299,648.3569 C1331.21,651.6769 1439.51,658.5369 1506.29,610.2469 C1533.29,590.7169 1547.0345,558.9642 1554.6445,534.3242" fill="none" id="*start*-to-BOOT" style="stroke:#181818;stroke-width:1;"/><polygon fill="#181818" points="1556.12,529.5469,1549.6423,536.9657,1554.6445,534.3242,1557.286,539.3265,1556.12,529.5469" style="stroke:#181818;stroke-width:1;stroke-linejoin:miter;stroke-miterlimit:10;"/></g><!--link BOOT to SAFE_MODE--><g class="link" data-entity-1="ent0015" data-entity-2="ent0017" data-link-type="dependency" data-source-line="7" id="lnk18"><path d="M1591.07,504.2469 C1682.58,504.2469 1980.57,504.2469 2096.55,504.2469" fill="none" id="BOOT-to-SAFE_MODE" style="stroke:#181818;stroke-width:1;"/><polygon fill="#181818" points="2101.55,504.2469,2092.55,500.2469,2096.55,504.2469,2092.55,508.2469,2101.55,504.2469" style="stroke:#181818;stroke-width:1;stroke-linejoin:miter;stroke-miterlimit:10;"/><text fill="#000000" font-family="sans-serif" font-size="13" lengthAdjust="spacing" textLength="55.5674" x="1635.74" y="500.3138">crash 3x</text></g><!--link BOOT to SLEEP--><g class="link" data-entity-1="ent0015" data-entity-2="ent0013" data-link-type="dependency" data-source-line="8" id="lnk19"><path d="M1535.86,509.8069 C1499.03,516.3469 1430.91,524.3169 1376.29,507.2469 C1357.61,501.4069 1343.3838,493.0014 1328.5338,481.6614" fill="none" id="BOOT-to-SLEEP" style="stroke:#181818;stroke-width:1;"/><polygon fill="#181818" points="1324.56,478.6269,1329.2853,487.2682,1328.5338,481.6614,1334.1406,480.91,1324.56,478.6269" style="stroke:#181818;stroke-width:1;stroke-linejoin:miter;stroke-miterlimit:10;"/><text fill="#000000" font-family="sans-serif" font-size="13" lengthAdjust="spacing" textLength="128.9526" x="1377.29" y="503.3138">boot = DEEP_SLEEP</text></g><!--link SLEEP to BOOT--><g class="link" data-entity-1="ent0013" data-entity-2="ent0015" data-link-type="dependency" data-source-line="55" id="lnk41"><path d="M1346.66,455.4069 C1390.6,462.2069 1452.71,472.9069 1506.29,486.2469 C1516.03,488.6769 1521.8085,490.3203 1531.0885,493.3603" fill="none" id="SLEEP-to-BOOT" style="stroke:#181818;stroke-width:1;"/><polygon fill="#181818" points="1535.84,494.9169,1528.5325,488.3139,1531.0885,493.3603,1526.042,495.9163,1535.84,494.9169" style="stroke:#181818;stroke-width:1;stroke-linejoin:miter;stroke-miterlimit:10;"/><text fill="#000000" font-family="sans-serif" font-size="13" lengthAdjust="spacing" textLength="59.7188" x="1411.7968" y="441.5238">tekan OK</text><text fill="#000000" font-family="sans-serif" font-size="13" lengthAdjust="spacing" textLength="81.7324" x="1400.79" y="456.6566">(EXT0 wake)</text></g><!--link BOOT to SYNC--><g class="link" data-entity-1="ent0015" data-entity-2="ent0008" data-link-type="dependency" data-source-line="9" id="lnk20"><path d="M1591.08,492.3469 C1600.44,488.1769 1611.05,483.4769 1620.74,479.2469 C1737.3,428.3169 1864.1917,373.8404 1966.6017,330.1104" fill="none" id="BOOT-to-SYNC" style="stroke:#181818;stroke-width:1;"/><polygon fill="#181818" points="1971.2,328.1469,1961.3522,328.0026,1966.6017,330.1104,1964.4938,335.3599,1971.2,328.1469" style="stroke:#181818;stroke-width:1;stroke-linejoin:miter;stroke-miterlimit:10;"/><text fill="#000000" font-family="sans-serif" font-size="13" lengthAdjust="spacing" textLength="83.4082" x="1621.74" y="444.2138">boot = SYNC</text></g><!--link BOOT to MENU--><g class="link" data-entity-1="ent0015" data-entity-2="ent0001" data-link-type="dependency" data-source-line="10" id="lnk21"><path d="M1536.16,517.4569 C1488.33,540.1769 1383.46,584.2469 1289.68,584.2469 C359.2,584.2469 359.2,584.2469 359.2,584.2469 C239.84,584.2469 143.1601,463.6957 102.2401,403.7857" fill="none" id="BOOT-to-MENU" style="stroke:#181818;stroke-width:1;"/><polygon fill="#181818" points="99.42,399.6569,101.1931,409.3448,102.2401,403.7857,107.7992,404.8327,99.42,399.6569" style="stroke:#181818;stroke-width:1;stroke-linejoin:miter;stroke-miterlimit:10;"/><text fill="#000000" font-family="sans-serif" font-size="13" lengthAdjust="spacing" textLength="90.8984" x="811.07" y="580.3138">boot = AUDIO</text></g><!--link MENU to SCAN--><g class="link" data-entity-1="ent0001" data-entity-2="ent0002" data-link-type="dependency" data-source-line="17" id="lnk22"><path d="M150,378.8469 C202.94,386.7869 268.6454,396.6544 312.7954,403.2844" fill="none" id="MENU-to-SCAN" style="stroke:#181818;stroke-width:1;"/><polygon fill="#181818" points="317.74,404.0269,309.4338,398.7347,312.7954,403.2844,308.2458,406.646,317.74,404.0269" style="stroke:#181818;stroke-width:1;stroke-linejoin:miter;stroke-miterlimit:10;"/><text fill="#000000" font-family="sans-serif" font-size="13" lengthAdjust="spacing" textLength="61.2549" x="194.29" y="380.3138">OK&#8594;Scan</text></g><!--link MENU to SYNC--><g class="link" data-entity-1="ent0001" data-entity-2="ent0008" data-link-type="dependency" data-source-line="18" id="lnk23"><path d="M124.58,336.8269 C178.04,302.7769 270.97,253.2469 359.2,253.2469 C359.2,253.2469 359.2,253.2469 1564.51,253.2469 C1619.78,253.2469 1672.99,253.2469 1730.38,253.2469" fill="none" id="MENU-to-SYNC" style="stroke:#181818;stroke-width:1;"/><polygon fill="#181818" points="1735.38,253.2469,1726.38,249.2469,1730.38,253.2469,1726.38,257.2469,1735.38,253.2469" style="stroke:#181818;stroke-width:1;stroke-linejoin:miter;stroke-miterlimit:10;"/><text fill="#000000" font-family="sans-serif" font-size="13" lengthAdjust="spacing" textLength="60.9819" x="945.57" y="249.3138">OK&#8594;Sync</text></g><!--link SYNC to MENU--><g class="link" data-entity-1="ent0008" data-entity-2="ent0001" data-link-type="dependency" data-source-line="51" id="lnk40"><path d="M1735.35,190.4969 C1678.1,185.4469 1619.93,182.2469 1564.51,182.2469 C359.2,182.2469 359.2,182.2469 359.2,182.2469 C248.66,182.2469 151.6815,280.343 107.0715,333.293" fill="none" id="SYNC-to-MENU" style="stroke:#181818;stroke-width:1;"/><polygon fill="#181818" points="103.85,337.1169,112.7078,332.8112,107.0715,333.293,106.5897,327.6568,103.85,337.1169" style="stroke:#181818;stroke-width:1;stroke-linejoin:miter;stroke-miterlimit:10;"/><text fill="#000000" font-family="sans-serif" font-size="13" lengthAdjust="spacing" textLength="85.1602" x="933.07" y="178.3138">selesai/gagal</text></g><!--link MENU to IDLE--><g class="link" data-entity-1="ent0001" data-entity-2="ent0005" data-link-type="dependency" data-source-line="19" id="lnk24"><path d="M118.97,399.5569 C170.94,437.4569 266.52,496.2469 359.2,496.2469 C359.2,496.2469 359.2,496.2469 857.07,496.2469 C928.87,496.2469 1004.7974,467.1095 1044.1574,449.6995" fill="none" id="MENU-to-IDLE" style="stroke:#181818;stroke-width:1;"/><polygon fill="#181818" points="1048.73,447.6769,1038.8812,447.6594,1044.1574,449.6995,1042.1173,454.9757,1048.73,447.6769" style="stroke:#181818;stroke-width:1;stroke-linejoin:miter;stroke-miterlimit:10;"/><text fill="#000000" font-family="sans-serif" font-size="13" lengthAdjust="spacing" textLength="54.2661" x="584.34" y="492.3138">OK&#8594;Exit</text></g><!--link IDLE to MENU--><g class="link" data-entity-1="ent0005" data-entity-2="ent0001" data-link-type="dependency" data-source-line="34" id="lnk30"><path d="M1048.63,413.5869 C1010.69,380.8569 933.95,324.2469 857.07,324.2469 C359.2,324.2469 359.2,324.2469 359.2,324.2469 C287.41,324.2469 211.3747,337.4891 155.1047,349.7891" fill="none" id="IDLE-to-MENU" style="stroke:#181818;stroke-width:1;"/><polygon fill="#181818" points="150.22,350.8569,159.8666,352.8427,155.1047,349.7891,158.1582,345.0272,150.22,350.8569" style="stroke:#181818;stroke-width:1;stroke-linejoin:miter;stroke-miterlimit:10;"/><text fill="#000000" font-family="sans-serif" font-size="13" lengthAdjust="spacing" textLength="50.9463" x="586.34" y="320.3138">long OK</text></g><!--link SCAN to PAIR--><g class="link" data-entity-1="ent0002" data-entity-2="ent0003" data-link-type="dependency" data-source-line="21" id="lnk25"><path d="M402.62,411.7469 C444.68,413.2669 505.0232,415.4471 551.1732,417.1071" fill="none" id="SCAN-to-PAIR" style="stroke:#181818;stroke-width:1;"/><polygon fill="#181818" points="556.17,417.2869,547.3196,412.9659,551.1732,417.1071,547.032,420.9608,556.17,417.2869" style="stroke:#181818;stroke-width:1;stroke-linejoin:miter;stroke-miterlimit:10;"/><text fill="#000000" font-family="sans-serif" font-size="13" lengthAdjust="spacing" textLength="74.1597" x="451.61" y="409.7438">pilih device</text></g><!--link PAIR to POLA--><g class="link" data-entity-1="ent0003" data-entity-2="ent0004" data-link-type="dependency" data-source-line="22" id="lnk26"><path d="M666.51,417.6869 C712.9,416.3469 773.4121,414.6006 813.7421,413.4406" fill="none" id="PAIR-to-POLA" style="stroke:#181818;stroke-width:1;"/><polygon fill="#181818" points="818.74,413.2969,809.6287,409.5573,813.7421,413.4406,809.8587,417.554,818.74,413.2969" style="stroke:#181818;stroke-width:1;stroke-linejoin:miter;stroke-miterlimit:10;"/><text fill="#000000" font-family="sans-serif" font-size="13" lengthAdjust="spacing" textLength="82.2148" x="697.07" y="410.5738">CONNECTED</text></g><!--link POLA to IDLE--><g class="link" data-entity-1="ent0004" data-entity-2="ent0005" data-link-type="dependency" data-source-line="23" id="lnk27"><path d="M893.22,416.2669 C937.3,421.1569 1005.6206,428.7547 1043.6006,432.9747" fill="none" id="POLA-to-IDLE" style="stroke:#181818;stroke-width:1;"/><polygon fill="#181818" points="1048.57,433.5269,1040.0668,428.5575,1043.6006,432.9747,1039.1833,436.5085,1048.57,433.5269" style="stroke:#181818;stroke-width:1;stroke-linejoin:miter;stroke-miterlimit:10;"/><text fill="#000000" font-family="sans-serif" font-size="13" lengthAdjust="spacing" textLength="64.2954" x="943.57" y="416.7638">OK&#8594;Mulai</text></g><!--link ANALYZING to GUIDING--><g class="link" data-entity-1="ent0006" data-entity-2="ent0007" data-link-type="dependency" data-source-line="27" id="lnk28"><path d="M125.6,86.0969 C173.18,83.8869 242.5054,80.6693 294.5154,78.2493" fill="none" id="ANALYZING-to-GUIDING" style="stroke:#181818;stroke-width:1;"/><polygon fill="#181818" points="299.51,78.0169,290.3338,74.4395,294.5154,78.2493,290.7056,82.4309,299.51,78.0169" style="stroke:#181818;stroke-width:1;stroke-linejoin:miter;stroke-miterlimit:10;"/><text fill="#000000" font-family="sans-serif" font-size="13" lengthAdjust="spacing" textLength="58.8618" x="195.6294" y="60.5138">stable&gt;5</text><text fill="#000000" font-family="sans-serif" font-size="13" lengthAdjust="spacing" textLength="87.5405" x="181.29" y="75.6466">&#8594; REC START</text></g><!--link GUIDING to ANALYZING--><g class="link" data-entity-1="ent0007" data-entity-2="ent0006" data-link-type="dependency" data-source-line="28" id="lnk29"><path d="M311.32,106.4969 C298.36,113.3769 283.98,119.6769 269.79,123.2469 C231,132.9969 219.23,129.9269 179.79,123.2469 C161.69,120.1769 147.1823,115.9338 130.4723,109.7838" fill="none" id="GUIDING-to-ANALYZING" style="stroke:#181818;stroke-width:1;"/><polygon fill="#181818" points="125.78,108.0569,132.8446,114.9192,130.4723,109.7838,135.6077,107.4116,125.78,108.0569" style="stroke:#181818;stroke-width:1;stroke-linejoin:miter;stroke-miterlimit:10;"/><text fill="#000000" font-family="sans-serif" font-size="13" lengthAdjust="spacing" textLength="75.4355" x="187.1694" y="104.3138">&gt;3 meleset</text><text fill="#000000" font-family="sans-serif" font-size="13" lengthAdjust="spacing" textLength="88.1943" x="180.79" y="119.4466">&#8594; REC PAUSE</text></g><!--link IDLE to SLEEP--><g class="link" data-entity-1="ent0005" data-entity-2="ent0013" data-link-type="dependency" data-source-line="35" id="lnk31"><path d="M1099.46,437.5069 C1131.31,439.1569 1183.0566,441.8395 1225.9366,444.0495" fill="none" id="IDLE-to-SLEEP" style="stroke:#181818;stroke-width:1;"/><polygon fill="#181818" points="1230.93,444.3069,1222.1478,439.8489,1225.9366,444.0495,1221.736,447.8383,1230.93,444.3069" style="stroke:#181818;stroke-width:1;stroke-linejoin:miter;stroke-miterlimit:10;"/><text fill="#000000" font-family="sans-serif" font-size="13" lengthAdjust="spacing" textLength="70.4082" x="1130.07" y="435.2638">OK&gt;2detik</text></g><?plantuml-src NLJHRjem57ttLrnHQLidbRQWlI0DAGJ342H6JTZQZGcvu18Buw34QRjDa_Qq3vZsXVsI-PgaIOTG59zpxlMznzSnqYW1aU56GC3NYTG2kYRTtwOg-gRNX2XnPy2aaCbjOc0ZCx4sCjKatqbzu1dVGux1erIRI7uNSDaXvClRht1sreS1Op71Xrj5teYk0ZQaq8DrnlC4keyDTaRft3AtQMhWFGpjQkMmXkGcz6i5hcekeE6Yvhp5SC88oOzj8NKom_flX5BfWzK5tYHqn59VjgCrrz1fOx_GRTD7QSh8oFV2CdAW2c7Z40aduNYfttGkO2ECt9sMuhatkRAAEPSPl08_rTewLN5ivY4dbKnWdYg-rDrU1ywXqxian1Ne6iJzUi2cJx__O54DvjZwaS5pUMOcmncj65SwSLcGAYiwk5qtubwk1N6O8uyb-ImCgH_J8N70_nc3Gd59o6ju-llB_k43zQvYO2DRK1JJe8JBBbtWqQvn9eI67mJipmkzsSrdQvhBFbvCXlZUmxcvLQB_RgdjHd15VOXYczt5L2gCgEDxqE_2NYYH2rD7pRr5HCdFwhYRSc_FZGHffzGwdaXJw2r4yw1KrgLunKQcu2_eKi_O60uY0yNrTiSJGbnNZH5JgKt2fZLUJIwRzZjk8Xf-kNDxOP93Jk94vdZnZWvLz-KJj-U70BxOZ0Ex0z_SYyp8NEfjJQ4ulhQA3tFhGWjpjXphm05VSpZF2jtUSElJJcPo3txqiL8uK_sfLL8sEXwHMw4zsm9QRDfwHb4xJ3NElX4s3qVKiIMQy4EHmvrKeaOnoFRq8WdsQ7F8lKWBWwVbZ6ZuckEvSdc-vLkkcXOwUqiFAwy35eqe3k9egKL-M6s4EAnoPP-bfFhykBftzdwpgRspz3g-W0U-4wVa7m00?></g></svg>