<svg xmlns="http://www.w3.org/2000/svg" xmlns:xlink="http://www.w3.org/1999/xlink" contentStyleType="text/css" data-diagram-type="STATE" height="613px" preserveAspectRatio="none" style="width:3047px;height:613px;background:#FFFFFF;" version="1.1" viewBox="0 0 3047 613" width="3047px" zoomAndPan="magnify"><?plantuml 1.2026.6?><defs/><g><g class="title" data-source-line="1"><text fill="#000000" font-family="sans-serif" font-size="14" font-weight="700" lengthAdjust="spacing" textLength="239.4902" x="1400.4027" y="22.9951">State Machine &#8212; 3tombolSync</text></g><!--cluster WAKE_UP--><g class="cluster" data-qualified-name="WAKE_UP" data-source-line="9" id="ent0001"><path d="M93.5,217.3669 L486.42,217.3669 A12.5,12.5 0 0 1 498.92,229.8669 L498.92,235.1716 L81,235.1716 L81,229.8669 A12.5,12.5 0 0 1 93.5,217.3669" fill="#F1F1F1"/><rect fill="none" height="121" rx="12.5" ry="12.5" style="stroke:#181818;stroke-width:0.5;" width="417.92" x="81" y="217.3669"/><line style="stroke:#181818;stroke-width:0.5;" x1="81" x2="498.92" y1="235.1716" y2="235.1716"/><text fill="#000000" font-family="sans-serif" font-size="11" lengthAdjust="spacing" textLength="52.7495" x="263.5852" y="231.5773">WAKE_UP</text></g><!--cluster AUDIO--><g class="cluster" data-qualified-name="AUDIO" data-source-line="23" id="ent0005"><path d="M990.67,208.3669 L2802.51,208.3669 A12.5,12.5 0 0 1 2815.01,220.8669 L2815.01,226.1716 L978.17,226.1716 L978.17,220.8669 A12.5,12.5 0 0 1 990.67,208.3669" fill="#F1F1F1"/><rect fill="none" height="225" rx="12.5" ry="12.5" style="stroke:#181818;stroke-width:0.5;" width="1836.84" x="978.17" y="208.3669"/><line style="stroke:#181818;stroke-width:0.5;" x1="978.17" x2="2815.01" y1="226.1716" y2="226.1716"/><text fill="#000000" font-family="sans-serif" font-size="11" lengthAdjust="spacing" textLength="35.9487" x="1878.6156" y="222.5773">AUDIO</text></g><g class="entity" data-qualified-name="WAKE_UP.CekMode" data-source-line="12" id="ent0002"><rect fill="#F1F1F1" height="50" rx="12.5" ry="12.5" style="stroke:#181818;stroke-width:0.5;" width="111.459" x="363.46" y="264.3669"/><line style="stroke:#181818;stroke-width:0.5;" x1="363.46" x2="474.919" y1="287.1716" y2="287.1716"/><text fill="#000000" font-family="sans-serif" font-size="11" lengthAdjust="spacing" textLength="50.7891" x="393.795" y="279.5773">CekMode</text><text fill="#000000" font-family="sans-serif" font-size="11" lengthAdjust="spacing" textLength="91.459" x="368.46" y="302.382">baca boot_mode</text></g><g class="start_entity" data-qualified-name="WAKE_UP..start.WAKE_UP" data-source-line="10" id="ent0021"><ellipse cx="115" cy="285.3669" fill="#222222" rx="10" ry="10" style="stroke:#222222;stroke-width:1;"/></g><g class="entity" data-qualified-name="WAKE_UP.Splash" data-source-line="10" id="ent0022"><rect fill="#F1F1F1" height="50" rx="12.5" ry="12.5" style="stroke:#181818;stroke-width:0.5;" width="56.4644" x="246" y="264.3669"/><line style="stroke:#181818;stroke-width:0.5;" x1="246" x2="302.4644" y1="287.1716" y2="287.1716"/><text fill="#000000" font-family="sans-serif" font-size="11" lengthAdjust="spacing" textLength="36.4644" x="256" y="279.5773">Splash</text></g><g class="entity" data-qualified-name="AUDIO.MENU" data-source-line="25" id="ent0006"><rect fill="#F1F1F1" height="50" rx="12.5" ry="12.5" style="stroke:#181818;stroke-width:0.5;" width="132.562" x="1486.41" y="301.3669"/><line style="stroke:#181818;stroke-width:0.5;" x1="1486.41" x2="1618.972" y1="324.1716" y2="324.1716"/><text fill="#000000" font-family="sans-serif" font-size="11" lengthAdjust="spacing" textLength="32.7207" x="1536.3307" y="316.5773">MENU</text><text fill="#000000" font-family="sans-serif" font-size="11" lengthAdjust="spacing" textLength="112.562" x="1491.41" y="339.382">1.Scan 2.Sync 3.Exit</text></g><g class="entity" data-qualified-name="AUDIO.SCAN" data-source-line="30" id="ent0007"><rect fill="#F1F1F1" height="58.4141" rx="12.5" ry="12.5" style="stroke:#181818;stroke-width:0.5;" width="78.6416" x="1694.98" y="341.1569"/><line style="stroke:#181818;stroke-width:0.5;" x1="1694.98" x2="1773.6216" y1="363.9616" y2="363.9616"/><text fill="#000000" font-family="sans-serif" font-size="11" lengthAdjust="spacing" textLength="30.4165" x="1719.0925" y="356.3673">SCAN</text><text fill="#000000" font-family="sans-serif" font-size="11" lengthAdjust="spacing" textLength="58.6416" x="1699.98" y="379.172">SCANNING</text><text fill="#000000" font-family="sans-serif" font-size="11" lengthAdjust="spacing" textLength="53.5659" x="1699.98" y="391.9767">(20 detik)</text></g><g class="entity" data-qualified-name="AUDIO.PICK" data-source-line="33" id="ent0008"><rect fill="#F1F1F1" height="50" rx="12.5" ry="12.5" style="stroke:#181818;stroke-width:0.5;" width="82.7505" x="1878.74" y="349.3669"/><line style="stroke:#181818;stroke-width:0.5;" x1="1878.74" x2="1961.4905" y1="372.1716" y2="372.1716"/><text fill="#000000" font-family="sans-serif" font-size="11" lengthAdjust="spacing" textLength="24.7715" x="1907.7295" y="364.5773">PICK</text><text fill="#000000" font-family="sans-serif" font-size="11" lengthAdjust="spacing" textLength="62.7505" x="1883.74" y="387.382">pilih device</text></g><g class="entity" data-qualified-name="AUDIO.PAIR" data-source-line="37" id="ent0009"><rect fill="#F1F1F1" height="50" rx="12.5" ry="12.5" style="stroke:#181818;stroke-width:0.5;" width="80.8599" x="2089.62" y="349.3669"/><line style="stroke:#181818;stroke-width:0.5;" x1="2089.62" x2="2170.4799" y1="372.1716" y2="372.1716"/><text fill="#000000" font-family="sans-serif" font-size="11" lengthAdjust="spacing" textLength="25.0454" x="2117.5272" y="364.5773">PAIR</text><text fill="#000000" font-family="sans-serif" font-size="11" lengthAdjust="spacing" textLength="60.8599" x="2094.62" y="387.382">connecting</text></g><g class="entity" data-qualified-name="AUDIO.POLA" data-source-line="40" id="ent0010"><rect fill="#F1F1F1" height="50" rx="12.5" ry="12.5" style="stroke:#181818;stroke-width:0.5;" width="66.1055" x="2295.48" y="349.3669"/><line style="stroke:#181818;stroke-width:0.5;" x1="2295.48" x2="2361.5855" y1="372.1716" y2="372.1716"/><text fill="#000000" font-family="sans-serif" font-size="11" lengthAdjust="spacing" textLength="28.9448" x="2314.0603" y="364.5773">POLA</text><text fill="#000000" font-family="sans-serif" font-size="11" lengthAdjust="spacing" textLength="46.1055" x="2300.48" y="387.382">3:2 / 2:1</text></g><g class="entity" data-qualified-name="AUDIO.RUN" data-source-line="43" id="ent0011"><path d="M2450.08,256.3069 L2778.5056,256.3069 A12.5,12.5 0 0 1 2791.0056,268.8069 L2791.0056,279.1116 L2437.58,279.1116 L2437.58,268.8069 A12.5,12.5 0 0 1 2450.08,256.3069" fill="#F1F1F1"/><rect fill="none" height="112.1247" rx="12.5" ry="12.5" style="stroke:#181818;stroke-width:0.5;" width="353.4256" x="2437.58" y="256.3069"/><line style="stroke:#181818;stroke-width:0.5;" x1="2437.58" x2="2791.0056" y1="279.1116" y2="279.1116"/><text fill="#000000" font-family="sans-serif" font-size="11" lengthAdjust="spacing" textLength="23.9229" x="2602.3314" y="271.5173">RUN</text><g class="entity" data-qualified-name="AUDIO.RUN.A" data-source-line="45" id="ent0012"><rect fill="#F1F1F1" height="58.4141" rx="12.5" ry="12.5" style="stroke:#181818;stroke-width:0.5;" width="83.6582" x="2505.58" y="291.1116"/><line style="stroke:#181818;stroke-width:0.5;" x1="2505.58" x2="2589.2382" y1="313.9163" y2="313.9163"/><text fill="#000000" font-family="sans-serif" font-size="11" lengthAdjust="spacing" textLength="7.5249" x="2543.6467" y="306.322">A</text><text fill="#000000" font-family="sans-serif" font-size="11" lengthAdjust="spacing" textLength="63.6582" x="2510.58" y="329.1267">ANALYZING</text><text fill="#000000" font-family="sans-serif" font-size="11" lengthAdjust="spacing" textLength="61.8696" x="2510.58" y="341.9314">hitung SPM</text></g><g class="entity" data-qualified-name="AUDIO.RUN.G" data-source-line="46" id="ent0013"><rect fill="#F1F1F1" height="58.4141" rx="12.5" ry="12.5" style="stroke:#181818;stroke-width:0.5;" width="72.7656" x="2694.24" y="291.1116"/><line style="stroke:#181818;stroke-width:0.5;" x1="2694.24" x2="2767.0056" y1="313.9163" y2="313.9163"/><text fill="#000000" font-family="sans-serif" font-size="11" lengthAdjust="spacing" textLength="8.5239" x="2726.3608" y="306.322">G</text><text fill="#000000" font-family="sans-serif" font-size="11" lengthAdjust="spacing" textLength="48.2861" x="2699.24" y="329.1267">GUIDING</text><text fill="#000000" font-family="sans-serif" font-size="11" lengthAdjust="spacing" textLength="52.7656" x="2699.24" y="341.9314">cue + log</text></g><g class="start_entity" data-qualified-name="AUDIO.RUN..start.RUN" data-source-line="44" id="ent0039"><ellipse cx="2458.58" cy="320.3216" fill="#222222" rx="10" ry="10" style="stroke:#222222;stroke-width:1;"/></g><!--link *start*RUN to A--><g class="link" data-entity-1="ent0039" data-entity-2="ent0012" data-link-type="dependency" data-source-line="44" id="lnk40"><path d="M2468.87,320.3216 C2477.71,320.3216 2486.64,320.3216 2500.28,320.3216" fill="none" id="*start*RUN-to-A" style="stroke:#181818;stroke-width:1;"/><polygon fill="#181818" points="2505.28,320.3216,2496.28,316.3216,2500.28,320.3216,2496.28,324.3216,2505.28,320.3216" style="stroke:#181818;stroke-width:1;stroke-linejoin:miter;stroke-miterlimit:10;"/></g><!--link A to G--><g class="link" data-entity-1="ent0012" data-entity-2="ent0013" data-link-type="dependency" data-source-line="47" id="lnk41"><path d="M2589.55,318.7416 C2595.48,318.5616 2601.52,318.4116 2607.24,318.3216 C2637.9,317.7916 2645.58,317.7416 2676.24,318.3216 C2681.99,318.4216 2683.0828,318.4333 2689.0228,318.6333" fill="none" id="A-to-G" style="stroke:#181818;stroke-width:1;"/><polygon fill="#181818" points="2694.02,318.8016,2685.1597,314.501,2689.0228,318.6333,2684.8905,322.4964,2694.02,318.8016" style="stroke:#181818;stroke-width:1;stroke-linejoin:miter;stroke-miterlimit:10;"/><text fill="#000000" font-family="sans-serif" font-size="10" lengthAdjust="spacing" textLength="45.2783" x="2619.2703" y="303.1938">stable&gt;5</text><text fill="#000000" font-family="sans-serif" font-size="10" lengthAdjust="spacing" textLength="67.3389" x="2608.24" y="314.8344">&#8594; REC START</text></g><!--link G to A--><g class="link" data-entity-1="ent0013" data-entity-2="ent0012" data-link-type="dependency" data-source-line="48" id="lnk42"><path d="M2694.03,341.1516 C2688.25,343.6916 2682.2,345.8916 2676.24,347.3216 C2646.41,354.4316 2637.2,353.8616 2607.24,347.3216 C2601.31,346.0216 2599.9203,345.883 2594.0803,343.613" fill="none" id="G-to-A" style="stroke:#181818;stroke-width:1;"/><polygon fill="#181818" points="2589.42,341.8016,2596.3594,348.7905,2594.0803,343.613,2599.2577,341.3339,2589.42,341.8016" style="stroke:#181818;stroke-width:1;stroke-linejoin:miter;stroke-miterlimit:10;"/><text fill="#000000" font-family="sans-serif" font-size="10" lengthAdjust="spacing" textLength="58.0273" x="2613.1472" y="332.6038">&gt;3 meleset</text><text fill="#000000" font-family="sans-serif" font-size="10" lengthAdjust="spacing" textLength="67.8418" x="2608.24" y="344.2444">&#8594; REC PAUSE</text></g></g><g class="start_entity" data-qualified-name="AUDIO..start.AUDIO" data-source-line="24" id="ent0029"><ellipse cx="1012.17" cy="326.3669" fill="#222222" rx="10" ry="10" style="stroke:#222222;stroke-width:1;"/></g><g class="entity" data-qualified-name="SLEEP" data-source-line="19" id="ent0003"><rect fill="#F1F1F1" height="50" rx="12.5" ry="12.5" style="stroke:#181818;stroke-width:0.5;" width="107.2856" x="2925.01" y="171.3669"/><line style="stroke:#181818;stroke-width:0.5;" x1="2925.01" x2="3032.2956" y1="194.1716" y2="194.1716"/><text fill="#000000" font-family="sans-serif" font-size="11" lengthAdjust="spacing" textLength="33.6445" x="2961.8306" y="186.5773">SLEEP</text><text fill="#000000" font-family="sans-serif" font-size="11" lengthAdjust="spacing" textLength="87.2856" x="2930.01" y="209.382">esp_deep_sleep</text></g><g class="entity" data-qualified-name="SAFE_MODE" data-source-line="20" id="ent0004"><rect fill="#F1F1F1" height="58.4141" rx="12.5" ry="12.5" style="stroke:#181818;stroke-width:0.5;" width="129.5972" x="947.37" y="126.1569"/><line style="stroke:#181818;stroke-width:0.5;" x1="947.37" x2="1076.9672" y1="148.9616" y2="148.9616"/><text fill="#000000" font-family="sans-serif" font-size="11" lengthAdjust="spacing" textLength="66.854" x="978.7416" y="141.3673">SAFE_MODE</text><text fill="#000000" font-family="sans-serif" font-size="11" lengthAdjust="spacing" textLength="65.4253" x="952.37" y="164.172">tampil error</text><text fill="#000000" font-family="sans-serif" font-size="11" lengthAdjust="spacing" textLength="109.5972" x="952.37" y="176.9767">tunggu cabut batrai</text></g><g class="entity" data-qualified-name="SYNC" data-source-line="58" id="ent0014"><path d="M636.42,457.3569 L1387.91,457.3569 A12.5,12.5 0 0 1 1400.41,469.8569 L1400.41,480.1616 L623.92,480.1616 L623.92,469.8569 A12.5,12.5 0 0 1 636.42,457.3569" fill="#F1F1F1"/><rect fill="none" height="142.0188" rx="12.5" ry="12.5" style="stroke:#181818;stroke-width:0.5;" width="776.49" x="623.92" y="457.3569"/><line style="stroke:#181818;stroke-width:0.5;" x1="623.92" x2="1400.41" y1="480.1616" y2="480.1616"/><text fill="#000000" font-family="sans-serif" font-size="11" lengthAdjust="spacing" textLength="29.6108" x="997.3596" y="472.5673">SYNC</text><g class="entity" data-qualified-name="SYNC.Wait" data-source-line="60" id="ent0015"><rect fill="#F1F1F1" height="50" rx="12.5" ry="12.5" style="stroke:#181818;stroke-width:0.5;" width="105.7549" x="691.92" y="532.1616"/><line style="stroke:#181818;stroke-width:0.5;" x1="691.92" x2="797.6749" y1="554.9663" y2="554.9663"/><text fill="#000000" font-family="sans-serif" font-size="11" lengthAdjust="spacing" textLength="24.9863" x="732.3043" y="547.372">Wait</text><text fill="#000000" font-family="sans-serif" font-size="11" lengthAdjust="spacing" textLength="85.7549" x="696.92" y="570.1767">BLE advertising</text></g><g class="entity" data-qualified-name="SYNC.TX" data-source-line="62" id="ent0016"><rect fill="#F1F1F1" height="58.4141" rx="12.5" ry="12.5" style="stroke:#181818;stroke-width:0.5;" width="73.4048" x="893.67" y="527.9616"/><line style="stroke:#181818;stroke-width:0.5;" x1="893.67" x2="967.0748" y1="550.7663" y2="550.7663"/><text fill="#000000" font-family="sans-serif" font-size="11" lengthAdjust="spacing" textLength="14.2549" x="923.245" y="543.172">TX</text><text fill="#000000" font-family="sans-serif" font-size="11" lengthAdjust="spacing" textLength="53.4048" x="898.67" y="565.9767">kirim CSV</text><text fill="#000000" font-family="sans-serif" font-size="11" lengthAdjust="spacing" textLength="52.2876" x="898.67" y="578.7814">(/run.dat)</text></g><g class="entity" data-qualified-name="SYNC.ACK" data-source-line="64" id="ent0017"><rect fill="#F1F1F1" height="50" rx="12.5" ry="12.5" style="stroke:#181818;stroke-width:0.5;" width="88.6802" x="1024.08" y="532.1616"/><line style="stroke:#181818;stroke-width:0.5;" x1="1024.08" x2="1112.7602" y1="554.9663" y2="554.9663"/><text fill="#000000" font-family="sans-serif" font-size="11" lengthAdjust="spacing" textLength="22.4189" x="1057.2106" y="547.372">ACK</text><text fill="#000000" font-family="sans-serif" font-size="11" lengthAdjust="spacing" textLength="68.6802" x="1029.08" y="570.1767">tunggu "OK"</text></g><g class="entity" data-qualified-name="SYNC.Done" data-source-line="67" id="ent0018"><rect fill="#F1F1F1" height="50" rx="12.5" ry="12.5" style="stroke:#181818;stroke-width:0.5;" width="73.6465" x="1215.76" y="492.1616"/><line style="stroke:#181818;stroke-width:0.5;" x1="1215.76" x2="1289.4065" y1="514.9663" y2="514.9663"/><text fill="#000000" font-family="sans-serif" font-size="11" lengthAdjust="spacing" textLength="28.9395" x="1238.1135" y="507.372">Done</text><text fill="#000000" font-family="sans-serif" font-size="11" lengthAdjust="spacing" textLength="53.6465" x="1220.76" y="530.1767">hapus file</text></g><g class="start_entity" data-qualified-name="SYNC..start.SYNC" data-source-line="59" id="ent0046"><ellipse cx="644.92" cy="557.1616" fill="#222222" rx="10" ry="10" style="stroke:#222222;stroke-width:1;"/></g><g class="entity" data-qualified-name="SYNC.End" data-source-line="66" id="ent0051"><rect fill="#F1F1F1" height="50" rx="12.5" ry="12.5" style="stroke:#181818;stroke-width:0.5;" width="50" x="1326.41" y="536.1616"/><line style="stroke:#181818;stroke-width:0.5;" x1="1326.41" x2="1376.41" y1="558.9663" y2="558.9663"/><text fill="#000000" font-family="sans-serif" font-size="11" lengthAdjust="spacing" textLength="20.9043" x="1340.9579" y="551.372">End</text></g><!--link *start*SYNC to Wait--><g class="link" data-entity-1="ent0046" data-entity-2="ent0015" data-link-type="dependency" data-source-line="59" id="lnk47"><path d="M655.3,557.1616 C664.01,557.1616 672.71,557.1616 686.75,557.1616" fill="none" id="*start*SYNC-to-Wait" style="stroke:#181818;stroke-width:1;"/><polygon fill="#181818" points="691.75,557.1616,682.75,553.1616,686.75,557.1616,682.75,561.1616,691.75,557.1616" style="stroke:#181818;stroke-width:1;stroke-linejoin:miter;stroke-miterlimit:10;"/></g><!--link Wait to TX--><g class="link" data-entity-1="ent0015" data-entity-2="ent0016" data-link-type="dependency" data-source-line="61" id="lnk48"><path d="M797.91,557.1616 C828.44,557.1616 861.22,557.1616 888.44,557.1616" fill="none" id="Wait-to-TX" style="stroke:#181818;stroke-width:1;"/><polygon fill="#181818" points="893.44,557.1616,884.44,553.1616,888.44,557.1616,884.44,561.1616,893.44,557.1616" style="stroke:#181818;stroke-width:1;stroke-linejoin:miter;stroke-miterlimit:10;"/><text fill="#000000" font-family="sans-serif" font-size="10" lengthAdjust="spacing" textLength="58.0469" x="816.67" y="554.4438">HP&#8594;"SYNC"</text></g><!--link TX to ACK--><g class="link" data-entity-1="ent0016" data-entity-2="ent0017" data-link-type="dependency" data-source-line="63" id="lnk49"><path d="M967.48,557.1616 C984.79,557.1616 1000.68,557.1616 1018.88,557.1616" fill="none" id="TX-to-ACK" style="stroke:#181818;stroke-width:1;"/><polygon fill="#181818" points="1023.88,557.1616,1014.88,553.1616,1018.88,557.1616,1014.88,561.1616,1023.88,557.1616" style="stroke:#181818;stroke-width:1;stroke-linejoin:miter;stroke-miterlimit:10;"/><text fill="#000000" font-family="sans-serif" font-size="10" lengthAdjust="spacing" textLength="19.9414" x="986.08" y="554.4438">EOF</text></g><!--link ACK to Done--><g class="link" data-entity-1="ent0017" data-entity-2="ent0018" data-link-type="dependency" data-source-line="65" id="lnk50"><path d="M1113.05,547.5816 C1144.31,540.7216 1181.0363,532.6536 1210.4663,526.1936" fill="none" id="ACK-to-Done" style="stroke:#181818;stroke-width:1;"/><polygon fill="#181818" points="1215.35,525.1216,1205.7017,523.1442,1210.4663,526.1936,1207.4169,530.9581,1215.35,525.1216" style="stroke:#181818;stroke-width:1;stroke-linejoin:miter;stroke-miterlimit:10;"/><text fill="#000000" font-family="sans-serif" font-size="10" lengthAdjust="spacing" textLength="65.5176" x="1131.76" y="526.2638">ACK diterima</text></g><!--link ACK to End--><g class="link" data-entity-1="ent0017" data-entity-2="ent0051" data-link-type="dependency" data-source-line="66" id="lnk52"><path d="M1112.94,559.7916 C1142.04,561.4116 1181.18,563.3416 1215.76,564.1616 C1248.48,564.9516 1256.68,564.9716 1289.41,564.1616 C1301.49,563.8716 1309.9174,563.5142 1321.0874,562.9042" fill="none" id="ACK-to-End" style="stroke:#181818;stroke-width:1;"/><polygon fill="#181818" points="1326.08,562.6316,1316.8753,559.1283,1321.0874,562.9042,1317.3115,567.1164,1326.08,562.6316" style="stroke:#181818;stroke-width:1;stroke-linejoin:miter;stroke-miterlimit:10;"/><text fill="#000000" font-family="sans-serif" font-size="10" lengthAdjust="spacing" textLength="38.9697" x="1233.58" y="561.4438">timeout</text></g><!--link Done to End--><g class="link" data-entity-1="ent0018" data-entity-2="ent0051" data-link-type="dependency" data-source-line="68" id="lnk53"><path d="M1289.64,533.5516 C1301.79,539.0716 1310.4976,543.0338 1321.5276,548.0438" fill="none" id="Done-to-End" style="stroke:#181818;stroke-width:1;"/><polygon fill="#181818" points="1326.08,550.1116,1319.5399,542.7477,1321.5276,548.0438,1316.2315,550.0315,1326.08,550.1116" style="stroke:#181818;stroke-width:1;stroke-linejoin:miter;stroke-miterlimit:10;"/></g></g><g class="start_entity" data-qualified-name=".start." data-source-line="7" id="ent0019"><ellipse cx="16" cy="240.3669" fill="#222222" rx="10" ry="10" style="stroke:#222222;stroke-width:1;"/></g><!--link *start* to WAKE_UP--><g class="link" data-entity-1="ent0019" data-entity-2="ent0001" data-link-type="dependency" data-source-line="7" id="lnk20"><path d="M26.3,240.3669 C38.25,240.3669 59.6825,240.3669 78.3675,240.3669 C78.9514,240.3669 79.5326,240.3669 80.1108,240.3669 C80.3999,240.3669 75.6882,240.3669 75.9757,240.3669" fill="none" id="*start*-to-WAKE_UP" style="stroke:#181818;stroke-width:1;"/><polygon fill="#181818" points="80.9757,240.3669,71.9757,236.3669,75.9757,240.3669,71.9757,244.3669,80.9757,240.3669" style="stroke:#181818;stroke-width:1;stroke-linejoin:miter;stroke-miterlimit:10;"/></g><!--link *start*WAKE_UP to Splash--><g class="link" data-entity-1="ent0021" data-entity-2="ent0022" data-link-type="dependency" data-source-line="10" id="lnk23"><path d="M125.36,285.6069 C148.64,286.1969 204.8016,287.6304 240.7516,288.5404" fill="none" id="*start*WAKE_UP-to-Splash" style="stroke:#181818;stroke-width:1;"/><polygon fill="#181818" points="245.75,288.6669,236.8541,284.4404,240.7516,288.5404,236.6517,292.4379,245.75,288.6669" style="stroke:#181818;stroke-width:1;stroke-linejoin:miter;stroke-miterlimit:10;"/><text fill="#000000" font-family="sans-serif" font-size="10" lengthAdjust="spacing" textLength="59.3408" x="156" y="283.7191">"WAKE UP!"</text></g><!--link Splash to CekMode--><g class="link" data-entity-1="ent0022" data-entity-2="ent0002" data-link-type="dependency" data-source-line="11" id="lnk24"><path d="M302.8,289.3669 C319.92,289.3669 337.52,289.3669 358.19,289.3669" fill="none" id="Splash-to-CekMode" style="stroke:#181818;stroke-width:1;"/><polygon fill="#181818" points="363.19,289.3669,354.19,285.3669,358.19,289.3669,354.19,293.3669,363.19,289.3669" style="stroke:#181818;stroke-width:1;stroke-linejoin:miter;stroke-miterlimit:10;"/></g><!--link CekMode to AUDIO--><g class="link" data-entity-1="ent0002" data-entity-2="ent0005" data-link-type="dependency" data-source-line="13" id="lnk25"><path d="M475.13,308.4769 C511.49,317.5569 558.77,322.2469 593.92,300.3669 C619.57,284.3969 598.44,255.5969 623.92,239.3669 C659.935,216.4269 755.5225,214.2794 842.7113,217.9394 C886.3056,219.7694 927.8003,223.0513 958.6989,225.9119 C962.5612,226.2695 966.258,226.6204 969.7726,226.9612 C971.5299,227.1316 973.2417,227.2994 974.9058,227.4642 C975.7379,227.5466 971.5829,227.1305 972.3909,227.2114" fill="none" id="CekMode-to-AUDIO" style="stroke:#181818;stroke-width:1;"/><polygon fill="#181818" points="977.3661,227.7091,968.8089,222.833,972.3909,227.2114,968.0126,230.7933,977.3661,227.7091" style="stroke:#181818;stroke-width:1;stroke-linejoin:miter;stroke-miterlimit:10;"/><text fill="#000000" font-family="sans-serif" font-size="10" lengthAdjust="spacing" textLength="69.9219" x="523.92" y="297.6491">boot = AUDIO</text></g><!--link CekMode to SYNC--><g class="link" data-entity-1="ent0002" data-entity-2="ent0014" data-link-type="dependency" data-source-line="14" id="lnk26"><path d="M451.08,314.7569 C489.42,345.1069 557.84,395.5169 623.92,425.3669 C649.6,436.9669 672.1092,445.8584 699.7892,455.3284" fill="none" id="CekMode-to-SYNC" style="stroke:#181818;stroke-width:1;"/><polygon fill="#181818" points="704.52,456.9469,697.2994,450.2489,699.7892,455.3284,694.7098,457.8182,704.52,456.9469" style="stroke:#181818;stroke-width:1;stroke-linejoin:miter;stroke-miterlimit:10;"/><text fill="#000000" font-family="sans-serif" font-size="10" lengthAdjust="spacing" textLength="64.1602" x="526.42" y="366.2591">boot = SYNC</text></g><!--link CekMode to SLEEP--><g class="link" data-entity-1="ent0002" data-entity-2="ent0003" data-link-type="dependency" data-source-line="15" id="lnk27"><path d="M439.01,263.9369 C471.41,222.4669 542.18,141.5869 623.92,108.3669 C784.02,43.2969 838.36,73.3669 1011.17,73.3669 C1011.17,73.3669 1011.17,73.3669 2615.3,73.3669 C2735.54,73.3669 2862.4914,132.4794 2929.1314,168.4994" fill="none" id="CekMode-to-SLEEP" style="stroke:#181818;stroke-width:1;"/><polygon fill="#181818" points="2933.53,170.8769,2927.5146,163.0785,2929.1314,168.4994,2923.7106,170.1162,2933.53,170.8769" style="stroke:#181818;stroke-width:1;stroke-linejoin:miter;stroke-miterlimit:10;"/><text fill="#000000" font-family="sans-serif" font-size="10" lengthAdjust="spacing" textLength="99.1943" x="1870.62" y="70.6491">boot = DEEP_SLEEP</text></g><!--link CekMode to SAFE_MODE--><g class="link" data-entity-1="ent0002" data-entity-2="ent0004" data-link-type="dependency" data-source-line="16" id="lnk28"><path d="M467.31,263.9869 C507.69,243.4269 568.03,215.4669 623.92,200.3669 C735,170.3669 864.3246,160.5809 942.0346,157.2509" fill="none" id="CekMode-to-SAFE_MODE" style="stroke:#181818;stroke-width:1;"/><polygon fill="#181818" points="947.03,157.0369,937.867,153.4259,942.0346,157.2509,938.2095,161.4185,947.03,157.0369" style="stroke:#181818;stroke-width:1;stroke-linejoin:miter;stroke-miterlimit:10;"/><text fill="#000000" font-family="sans-serif" font-size="10" lengthAdjust="spacing" textLength="42.7441" x="537.42" y="208.3691">crash 3x</text></g><!--link *start*AUDIO to MENU--><g class="link" data-entity-1="ent0029" data-entity-2="ent0006" data-link-type="dependency" data-source-line="24" id="lnk30"><path d="M1022.52,326.3669 C1077.13,326.3669 1351.94,326.3669 1481.15,326.3669" fill="none" id="*start*AUDIO-to-MENU" style="stroke:#181818;stroke-width:1;"/><polygon fill="#181818" points="1486.15,326.3669,1477.15,322.3669,1481.15,326.3669,1477.15,330.3669,1486.15,326.3669" style="stroke:#181818;stroke-width:1;stroke-linejoin:miter;stroke-miterlimit:10;"/></g><!--link MENU to SCAN--><g class="link" data-entity-1="ent0006" data-entity-2="ent0007" data-link-type="dependency" data-source-line="26" id="lnk31"><path d="M1619.3,342.4369 C1644.55,348.6269 1667.7039,354.2961 1689.6439,359.6761" fill="none" id="MENU-to-SCAN" style="stroke:#181818;stroke-width:1;"/><polygon fill="#181818" points="1694.5,360.8669,1686.7116,354.8385,1689.6439,359.6761,1684.8063,362.6084,1694.5,360.8669" style="stroke:#181818;stroke-width:1;stroke-linejoin:miter;stroke-miterlimit:10;"/><text fill="#000000" font-family="sans-serif" font-size="10" lengthAdjust="spacing" textLength="14.4287" x="1649.98" y="348.2791">OK</text></g><!--link MENU to SYNC--><g class="link" data-entity-1="ent0006" data-entity-2="ent0014" data-link-type="dependency" data-source-line="27" id="lnk32"><path d="M1519.52,351.8269 C1490.04,374.0469 1444.41,405.7369 1400.41,425.3669 C1374.53,436.9169 1351.8049,445.8003 1323.9249,455.2603" fill="none" id="MENU-to-SYNC" style="stroke:#181818;stroke-width:1;"/><polygon fill="#181818" points="1319.19,456.8669,1328.998,457.7629,1323.9249,455.2603,1326.4275,450.1871,1319.19,456.8669" style="stroke:#181818;stroke-width:1;stroke-linejoin:miter;stroke-miterlimit:10;"/><text fill="#000000" font-family="sans-serif" font-size="10" lengthAdjust="spacing" textLength="24.1016" x="1431.41" y="394.6591">Sync</text></g><!--link MENU to RUN--><g class="link" data-entity-1="ent0006" data-entity-2="ent0011" data-link-type="dependency" data-source-line="28" id="lnk33"><path d="M1619.46,324.6769 C1643.25,324.1469 1670.32,323.6269 1694.98,323.3669 C1729.93,322.9969 1738.67,323.2869 1773.62,323.3669 C1874.51,323.5869 1899.73,324.1469 2000.62,324.3669 C2026.84,324.4269 2033.4,324.6469 2059.62,324.3669 C2185.92,322.9969 2323.4116,320.0018 2432.2016,317.2818" fill="none" id="MENU-to-RUN" style="stroke:#181818;stroke-width:1;"/><polygon fill="#181818" points="2437.2,317.1569,2428.1028,313.3831,2432.2016,317.2818,2428.3028,321.3806,2437.2,317.1569" style="stroke:#181818;stroke-width:1;stroke-linejoin:miter;stroke-miterlimit:10;"/><text fill="#000000" font-family="sans-serif" font-size="10" lengthAdjust="spacing" textLength="18.9355" x="2021.12" y="321.6491">Exit</text></g><!--link RUN to MENU--><g class="link" data-entity-1="ent0011" data-entity-2="ent0006" data-link-type="dependency" data-source-line="51" id="lnk43"><path d="M2437.22,276.4869 C2401.72,271.6769 2364.55,268.3669 2329.53,268.3669 C1733.3,268.3669 1733.3,268.3669 1733.3,268.3669 C1687.91,268.3669 1643.6439,283.327 1608.3639,298.907" fill="none" id="RUN-to-MENU" style="stroke:#181818;stroke-width:1;"/><polygon fill="#181818" points="1603.79,300.9269,1613.6388,300.9502,1608.3639,298.907,1610.4071,293.632,1603.79,300.9269" style="stroke:#181818;stroke-width:1;stroke-linejoin:miter;stroke-miterlimit:10;"/><text fill="#000000" font-family="sans-serif" font-size="10" lengthAdjust="spacing" textLength="39.1895" x="2010.62" y="265.6491">long OK</text></g><!--link SCAN to PICK--><g class="link" data-entity-1="ent0007" data-entity-2="ent0008" data-link-type="dependency" data-source-line="31" id="lnk34"><path d="M1773.9,375.0169 C1783.59,375.9969 1793.97,376.8769 1803.62,377.3669 C1828.46,378.6369 1851.3354,378.2092 1873.4754,377.1792" fill="none" id="SCAN-to-PICK" style="stroke:#181818;stroke-width:1;"/><polygon fill="#181818" points="1878.47,376.9469,1869.2938,373.3694,1873.4754,377.1792,1869.6656,381.3608,1878.47,376.9469" style="stroke:#181818;stroke-width:1;stroke-linejoin:miter;stroke-miterlimit:10;"/><text fill="#000000" font-family="sans-serif" font-size="10" lengthAdjust="spacing" textLength="34.4092" x="1804.62" y="374.6491">selesai</text></g><!--link PICK to SCAN--><g class="link" data-entity-1="ent0008" data-entity-2="ent0007" data-link-type="dependency" data-source-line="35" id="lnk36"><path d="M1878.45,365.7969 C1866.04,363.5669 1852.32,361.4769 1839.62,360.3669 C1823.68,358.9769 1819.57,359.2069 1803.62,360.3669 C1793.93,361.0769 1788.4893,361.6269 1778.7993,363.0169" fill="none" id="PICK-to-SCAN" style="stroke:#181818;stroke-width:1;"/><polygon fill="#181818" points="1773.85,363.7269,1783.3268,366.4084,1778.7993,363.0169,1782.1908,358.4895,1773.85,363.7269" style="stroke:#181818;stroke-width:1;stroke-linejoin:miter;stroke-miterlimit:10;"/><text fill="#000000" font-family="sans-serif" font-size="10" lengthAdjust="spacing" textLength="33.4375" x="1805.12" y="356.6891">rescan</text></g><!--link PICK to PAIR--><g class="link" data-entity-1="ent0008" data-entity-2="ent0009" data-link-type="dependency" data-source-line="34" id="lnk35"><path d="M1961.96,376.2069 C1974.37,376.6869 1988.05,377.1269 2000.62,377.3669 C2026.83,377.8669 2033.4,377.9369 2059.62,377.3669 C2069.27,377.1569 2074.6744,376.9974 2084.4044,376.5874" fill="none" id="PICK-to-PAIR" style="stroke:#181818;stroke-width:1;"/><polygon fill="#181818" points="2089.4,376.3769,2080.2396,372.7593,2084.4044,376.5874,2080.5764,380.7522,2089.4,376.3769" style="stroke:#181818;stroke-width:1;stroke-linejoin:miter;stroke-miterlimit:10;"/><text fill="#000000" font-family="sans-serif" font-size="10" lengthAdjust="spacing" textLength="14.4287" x="2023.12" y="374.6491">OK</text></g><!--link PAIR to POLA--><g class="link" data-entity-1="ent0009" data-entity-2="ent0010" data-link-type="dependency" data-source-line="38" id="lnk37"><path d="M2170.81,374.3669 C2207.36,374.3669 2255.9,374.3669 2289.98,374.3669" fill="none" id="PAIR-to-POLA" style="stroke:#181818;stroke-width:1;"/><polygon fill="#181818" points="2294.98,374.3669,2285.98,370.3669,2289.98,374.3669,2285.98,378.3669,2294.98,374.3669" style="stroke:#181818;stroke-width:1;stroke-linejoin:miter;stroke-miterlimit:10;"/><text fill="#000000" font-family="sans-serif" font-size="10" lengthAdjust="spacing" textLength="63.2422" x="2201.48" y="371.6491">CONNECTED</text></g><!--link POLA to RUN--><g class="link" data-entity-1="ent0010" data-entity-2="ent0011" data-link-type="dependency" data-source-line="41" id="lnk38"><path d="M2362.08,367.2569 C2381.73,362.9569 2403.6053,358.1842 2432.3453,351.9042" fill="none" id="POLA-to-RUN" style="stroke:#181818;stroke-width:1;"/><polygon fill="#181818" points="2437.23,350.8369,2427.5836,348.8503,2432.3453,351.9042,2429.2914,356.6659,2437.23,350.8369" style="stroke:#181818;stroke-width:1;stroke-linejoin:miter;stroke-miterlimit:10;"/><text fill="#000000" font-family="sans-serif" font-size="10" lengthAdjust="spacing" textLength="14.4287" x="2392.58" y="355.0191">OK</text></g><!--link RUN to SLEEP--><g class="link" data-entity-1="ent0011" data-entity-2="ent0003" data-link-type="dependency" data-source-line="52" id="lnk44"><path d="M2791.35,268.8869 C2826.05,258.9269 2861.95,247.6169 2895.01,235.3669 C2905.72,231.3969 2912.3982,228.6678 2922.9982,223.7878" fill="none" id="RUN-to-SLEEP" style="stroke:#181818;stroke-width:1;"/><polygon fill="#181818" points="2927.54,221.6969,2917.692,221.8271,2922.9982,223.7878,2921.0375,229.094,2927.54,221.6969" style="stroke:#181818;stroke-width:1;stroke-linejoin:miter;stroke-miterlimit:10;"/><text fill="#000000" font-family="sans-serif" font-size="10" lengthAdjust="spacing" textLength="54.1602" x="2840.01" y="232.6491">OK&gt;2detik</text></g><!--link AUDIO to SLEEP--><g class="link" data-entity-1="ent0005" data-entity-2="ent0003" data-link-type="dependency" data-source-line="55" id="lnk45"><path d="M1316.5847,208.2586 C1317.5298,208.194 1318.4746,208.1294 1319.4191,208.065 C1323.1971,207.8074 1326.9702,207.5517 1330.7356,207.2982 C1360.8589,205.2697 1390.493,203.379 1418.2695,201.7595 C1473.8225,198.5206 1521.945,196.3669 1551.69,196.3669 C1551.69,196.3669 1551.69,196.3669 2615.3,196.3669 C2725.23,196.3669 2848.92,196.3669 2919.54,196.3669" fill="none" id="AUDIO-to-SLEEP" style="stroke:#181818;stroke-width:1;"/><polygon fill="#181818" points="2924.54,196.3669,2915.54,192.3669,2919.54,196.3669,2915.54,200.3669,2924.54,196.3669" style="stroke:#181818;stroke-width:1;stroke-linejoin:miter;stroke-miterlimit:10;"/><text fill="#000000" font-family="sans-serif" font-size="10" lengthAdjust="spacing" textLength="57.1826" x="2001.62" y="193.6491">batrai kritis</text></g><!--link SYNC to AUDIO--><g class="link" data-entity-1="ent0014" data-entity-2="ent0005" data-link-type="dependency" data-source-line="71" id="lnk54"><path d="M659.08,456.9669 C646.38,447.6169 634.57,437.1369 623.92,425.3669 C576.15,372.5669 575.98,333.6969 600.55,266.8669 C606.08,251.8069 609.43,246.2469 623.92,239.3669 C699.435,203.4969 792.885,200.4994 869.1788,206.9444 C907.3256,210.1669 941.1834,215.75 966.3658,220.765 C969.5136,221.3919 972.5258,222.0099 975.3939,222.6133 C976.111,222.7641 971.9288,221.8719 972.6277,222.0209" fill="none" id="SYNC-to-AUDIO" style="stroke:#181818;stroke-width:1;"/><polygon fill="#181818" points="977.5179,223.063,969.5492,217.275,972.6277,222.0209,967.8818,225.0993,977.5179,223.063" style="stroke:#181818;stroke-width:1;stroke-linejoin:miter;stroke-miterlimit:10;"/><text fill="#000000" font-family="sans-serif" font-size="10" lengthAdjust="spacing" textLength="65.5078" x="525.92" y="277.1491">selesai/gagal</text></g><?plantuml-src PLHTRzem57tthxZZPLygBQ2zL1fI5j8E0Kb4oBfkdP19t62HE2XnkcvJfJtjUPgsFzXVCbyx8K0HWjnpphtslJwnv39b44Wg6SnejEQ2mUFFlp2GURRAq-2RY0X9sQq4cKF1axM4c1SiaZmNfDnmiQK5pQ340XUva07_pg3NEwQieiY_jlmP8PzVVO6Jao5SMHDd6Vg4Q5qJmWy2wjE8WcrAopMSGmTv2Frd7StNE4fijfdbCTDm_QpqAnfHMEMvN6R792PPuMZieKmfuAq9duY2QzTkDHWzbKmTnsyr8nKjDVPKQLquovatSfGwAd3pWtloG4XJWPNRPSpOTbccwfViooNDjZm5faPPt0XPYIIf8AAhIgesPK4v8S_XyTzlywrxsyNrV0rwEDsPuuOQm0UrKAyRH5H0lukd3uEkSyzbo-ikRCjLGczo19j9QTCS4FCGvRgEEJUJZt_ksBsy4I_wPn0poJSlMnuJ_R4zKSAIfQp41f6iCJKBlbP9TpnYBQwJhF6ytTqEhXSjMAcwgqiPPPGBWPOMIOlgGjxKKhJjkQvZBvnHdMJGmNaVJg5_tcl1jbMrjeRDq14p8zyVkxL3i9pbMjFhJteOQuw72u4_soakbU8o78yq7rKCNaEQ9ti5i22Ar8Ahb0tVt8Z7NtzWxjWGBApvOg-GNbefXmF8SAnCjbhV2WD7Qn_C_d7dZKLKJfghVTLpRQZ6kTvasDT7Y7OsDZjuDRH5OLDmoSj3fshR71jLWuS-lQAr3_51bNmtTO36TwnG5PkpqnIA5n-LuhslEkjWANDVQ7332vw17NnGjZijAj6DgNpPq7ewsb-ETw514zMlMyURT7OeQaUvm7i6mvXBfYhJ0zuHCMRpZEMLsNoTiQRRgeHRdh8MhHFqVO3jxrzHzIjmcj24fkG_?></g></svg>