<svg xmlns="http://www.w3.org/2000/svg" xmlns:xlink="http://www.w3.org/1999/xlink" contentStyleType="text/css" data-diagram-type="DESCRIPTION" height="804px" preserveAspectRatio="none" style="width:373px;height:804px;background:#FFFFFF;" version="1.1" viewBox="0 0 373 804" width="373px" zoomAndPan="magnify"><?plantuml 1.2026.6?><defs/><g><g class="title" data-source-line="1"><text fill="#000000" font-family="sans-serif" font-size="14" font-weight="700" lengthAdjust="spacing" textLength="284.3545" x="40.8824" y="22.9951">Integrasi Subsistem &#8212; 3tombolSync</text></g><!--entity step--><g class="entity" data-qualified-name="step" data-source-line="6" id="ent0001"><rect fill="#ADD8E6" height="78.8906" rx="2.5" ry="2.5" style="stroke:#181818;stroke-width:0.5;" width="138.875" x="201.31" y="44.2969"/><rect fill="#ADD8E6" height="10" style="stroke:#181818;stroke-width:0.5;" width="15" x="320.185" y="49.2969"/><rect fill="#ADD8E6" height="2" style="stroke:#181818;stroke-width:0.5;" width="4" x="318.185" y="51.2969"/><rect fill="#ADD8E6" height="2" style="stroke:#181818;stroke-width:0.5;" width="4" x="318.185" y="55.2969"/><text fill="#000000" font-family="sans-serif" font-size="14" lengthAdjust="spacing" textLength="97.0156" x="216.31" y="77.292">STEP SENSOR</text><text fill="#000000" font-family="sans-serif" font-size="14" lengthAdjust="spacing" textLength="77.3213" x="216.31" y="93.5889">(MPU6050)</text><text fill="#000000" font-family="sans-serif" font-size="14" lengthAdjust="spacing" textLength="98.875" x="216.31" y="109.8857">[Kode Teman]</text></g><!--entity breath--><g class="entity" data-qualified-name="breath" data-source-line="7" id="ent0002"><rect fill="#F08080" height="78.8906" rx="2.5" ry="2.5" style="stroke:#181818;stroke-width:0.5;" width="159.123" x="191.19" y="158.2969"/><rect fill="#F08080" height="10" style="stroke:#181818;stroke-width:0.5;" width="15" x="330.313" y="163.2969"/><rect fill="#F08080" height="2" style="stroke:#181818;stroke-width:0.5;" width="4" x="328.313" y="165.2969"/><rect fill="#F08080" height="2" style="stroke:#181818;stroke-width:0.5;" width="4" x="328.313" y="169.2969"/><text fill="#000000" font-family="sans-serif" font-size="14" lengthAdjust="spacing" textLength="119.123" x="206.19" y="191.292">BREATH SENSOR</text><text fill="#000000" font-family="sans-serif" font-size="14" lengthAdjust="spacing" textLength="41.0566" x="206.19" y="207.5889">(ADC)</text><text fill="#000000" font-family="sans-serif" font-size="14" lengthAdjust="spacing" textLength="98.875" x="206.19" y="223.8857">[Kode Teman]</text></g><!--entity bat--><g class="entity" data-qualified-name="bat" data-source-line="8" id="ent0003"><rect fill="#90EE90" height="78.8906" rx="2.5" ry="2.5" style="stroke:#181818;stroke-width:0.5;" width="126.707" x="207.4" y="272.2969"/><rect fill="#90EE90" height="10" style="stroke:#181818;stroke-width:0.5;" width="15" x="314.107" y="277.2969"/><rect fill="#90EE90" height="2" style="stroke:#181818;stroke-width:0.5;" width="4" x="312.107" y="279.2969"/><rect fill="#90EE90" height="2" style="stroke:#181818;stroke-width:0.5;" width="4" x="312.107" y="283.2969"/><text fill="#000000" font-family="sans-serif" font-size="14" lengthAdjust="spacing" textLength="63.4102" x="222.4" y="305.292">BATTERY</text><text fill="#000000" font-family="sans-serif" font-size="14" lengthAdjust="spacing" textLength="86.707" x="222.4" y="321.5889">(MAX17048)</text><text fill="#000000" font-family="sans-serif" font-size="14" lengthAdjust="spacing" textLength="76.6992" x="222.4" y="337.8857">[Kode Tim]</text></g><!--entity main--><g class="entity" data-qualified-name="main" data-source-line="11" id="ent0004"><rect fill="#FFFFE0" height="62.5938" rx="2.5" ry="2.5" style="stroke:#181818;stroke-width:0.5;" width="176.7393" x="182.38" y="417.4469"/><rect fill="#FFFFE0" height="10" style="stroke:#181818;stroke-width:0.5;" width="15" x="339.1193" y="422.4469"/><rect fill="#FFFFE0" height="2" style="stroke:#181818;stroke-width:0.5;" width="4" x="337.1193" y="424.4469"/><rect fill="#FFFFE0" height="2" style="stroke:#181818;stroke-width:0.5;" width="4" x="337.1193" y="428.4469"/><text fill="#000000" font-family="sans-serif" font-size="14" lengthAdjust="spacing" textLength="136.7393" x="197.38" y="450.442">3TOMBOLSYNC.INO</text><text fill="#000000" font-family="sans-serif" font-size="14" lengthAdjust="spacing" textLength="95.6074" x="197.38" y="466.7389">[KODE ANDA]</text></g><!--entity oled--><g class="entity" data-qualified-name="oled" data-source-line="14" id="ent0005"><rect fill="#F5DEB3" height="62.5938" rx="2.5" ry="2.5" style="stroke:#181818;stroke-width:0.5;" width="92.8213" x="224.34" y="727.4469"/><rect fill="#F5DEB3" height="10" style="stroke:#181818;stroke-width:0.5;" width="15" x="297.1613" y="732.4469"/><rect fill="#F5DEB3" height="2" style="stroke:#181818;stroke-width:0.5;" width="4" x="295.1613" y="734.4469"/><rect fill="#F5DEB3" height="2" style="stroke:#181818;stroke-width:0.5;" width="4" x="295.1613" y="738.4469"/><text fill="#000000" font-family="sans-serif" font-size="14" lengthAdjust="spacing" textLength="38.4453" x="239.34" y="760.442">OLED</text><text fill="#000000" font-family="sans-serif" font-size="14" lengthAdjust="spacing" textLength="52.8213" x="239.34" y="776.7389">128x64</text></g><!--entity earphone--><g class="entity" data-qualified-name="earphone" data-source-line="15" id="ent0006"><rect fill="#DDA0DD" height="62.5938" rx="2.5" ry="2.5" style="stroke:#181818;stroke-width:0.5;" width="117.458" x="212.02" y="629.4469"/><rect fill="#DDA0DD" height="10" style="stroke:#181818;stroke-width:0.5;" width="15" x="309.478" y="634.4469"/><rect fill="#DDA0DD" height="2" style="stroke:#181818;stroke-width:0.5;" width="4" x="307.478" y="636.4469"/><rect fill="#DDA0DD" height="2" style="stroke:#181818;stroke-width:0.5;" width="4" x="307.478" y="640.4469"/><text fill="#000000" font-family="sans-serif" font-size="14" lengthAdjust="spacing" textLength="77.458" x="227.02" y="662.442">EARPHONE</text><text fill="#000000" font-family="sans-serif" font-size="14" lengthAdjust="spacing" textLength="48.6309" x="227.02" y="678.7389">(A2DP)</text></g><!--entity hp--><g class="entity" data-qualified-name="hp" data-source-line="16" id="ent0007"><rect fill="#D8BFD8" height="62.5938" rx="2.5" ry="2.5" style="stroke:#181818;stroke-width:0.5;" width="125.1963" x="208.15" y="531.4469"/><rect fill="#D8BFD8" height="10" style="stroke:#181818;stroke-width:0.5;" width="15" x="313.3463" y="536.4469"/><rect fill="#D8BFD8" height="2" style="stroke:#181818;stroke-width:0.5;" width="4" x="311.3463" y="538.4469"/><rect fill="#D8BFD8" height="2" style="stroke:#181818;stroke-width:0.5;" width="4" x="311.3463" y="542.4469"/><text fill="#000000" font-family="sans-serif" font-size="14" lengthAdjust="spacing" textLength="85.1963" x="223.15" y="564.442">HP FLUTTER</text><text fill="#000000" font-family="sans-serif" font-size="14" lengthAdjust="spacing" textLength="37.1738" x="223.15" y="580.7389">(BLE)</text></g><!--link step to main--><g class="link" data-entity-1="ent0001" data-entity-2="ent0004" data-link-type="dependency" data-source-line="19" id="lnk8"><path d="M201.06,102.6769 C153.89,119.5169 95.09,149.3369 66.19,198.7369 C15.86,284.7769 129.7287,369.3345 206.6787,414.5345" fill="none" id="step-to-main" style="stroke:#181818;stroke-width:1;"/><polygon fill="#181818" points="210.99,417.0669,205.2557,409.0595,206.6787,414.5345,201.2038,415.9575,210.99,417.0669" style="stroke:#181818;stroke-width:1;stroke-linejoin:miter;stroke-miterlimit:10;"/><text fill="#000000" font-family="sans-serif" font-size="13" lengthAdjust="spacing" textLength="109.7256" x="37.38" y="211.8038">isStepDetected()</text><text fill="#000000" font-family="sans-serif" font-size="13" lengthAdjust="spacing" textLength="27.3076" x="78.589" y="226.9366">SPM</text></g><!--link breath to main--><g class="link" data-entity-1="ent0002" data-entity-2="ent0004" data-link-type="dependency" data-source-line="20" id="lnk9"><path d="M190.79,217.8269 C116.82,240.6469 23.57,282.8069 61.19,343.7369 C87.65,386.5869 132.7649,410.9119 177.2149,426.2919" fill="none" id="breath-to-main" style="stroke:#181818;stroke-width:1;"/><polygon fill="#181818" points="181.94,427.9269,174.7427,421.2039,177.2149,426.2919,172.1268,428.7641,181.94,427.9269" style="stroke:#181818;stroke-width:1;stroke-linejoin:miter;stroke-miterlimit:10;"/><text fill="#000000" font-family="sans-serif" font-size="13" lengthAdjust="spacing" textLength="119.647" x="32.38" y="324.8038">getCurrentPhase()</text><text fill="#000000" font-family="sans-serif" font-size="13" lengthAdjust="spacing" textLength="91.5015" x="46.4528" y="339.9366">HIRUP/BUANG</text></g><!--link bat to main--><g class="link" data-entity-1="ent0003" data-entity-2="ent0004" data-link-type="dependency" data-source-line="21" id="lnk10"><path d="M270.75,351.4369 C270.75,372.2669 270.75,392.4369 270.75,411.9669" fill="none" id="bat-to-main" style="stroke:#181818;stroke-width:1;"/><polygon fill="#181818" points="270.75,416.9669,274.75,407.9669,270.75,411.9669,266.75,407.9669,270.75,416.9669" style="stroke:#181818;stroke-width:1;stroke-linejoin:miter;stroke-miterlimit:10;"/><text fill="#000000" font-family="sans-serif" font-size="13" lengthAdjust="spacing" textLength="151.6772" x="176.25" y="381.3838">getVoltage()/getLevel()</text><text fill="#000000" font-family="sans-serif" font-size="13" lengthAdjust="spacing" textLength="145.8818" x="179.1477" y="396.5166">callback: critical &amp; low</text></g><!--link main to oled--><g class="link" data-entity-1="ent0004" data-entity-2="ent0005" data-link-type="dependency" data-source-line="23" id="lnk11"><path d="M182.11,449.8569 C140.95,455.4169 95.42,469.8069 69.19,504.2369 C6,587.1869 107.39,637.2869 182.38,709.7369 C194.37,721.3169 205.2017,728.7163 219.6617,736.3763" fill="none" id="main-to-oled" style="stroke:#181818;stroke-width:1;"/><polygon fill="#181818" points="224.08,738.7169,217.9994,730.9692,219.6617,736.3763,214.2545,738.0385,224.08,738.7169" style="stroke:#181818;stroke-width:1;stroke-linejoin:miter;stroke-miterlimit:10;"/><text fill="#000000" font-family="sans-serif" font-size="13" lengthAdjust="spacing" textLength="103.8667" x="40.38" y="517.3038">updateDisplay()</text></g><!--link main to earphone--><g class="link" data-entity-1="ent0004" data-entity-2="ent0006" data-link-type="dependency" data-source-line="24" id="lnk12"><path d="M182.08,474.1669 C119.93,496.8069 53.28,533.9069 85.69,582.7369 C113.55,624.7169 164.0256,643.1347 206.9756,652.1047" fill="none" id="main-to-earphone" style="stroke:#181818;stroke-width:1;"/><polygon fill="#181818" points="211.87,653.1269,203.8778,647.3714,206.9756,652.1047,202.2423,655.2025,211.87,653.1269" style="stroke:#181818;stroke-width:1;stroke-linejoin:miter;stroke-miterlimit:10;"/><text fill="#000000" font-family="sans-serif" font-size="13" lengthAdjust="spacing" textLength="66.3965" x="59.1398" y="563.8038">Audio Cue</text><text fill="#000000" font-family="sans-serif" font-size="13" lengthAdjust="spacing" textLength="70.916" x="56.88" y="578.9366">440-880Hz</text></g><!--link main to hp--><g class="link" data-entity-1="ent0004" data-entity-2="ent0007" data-link-type="dependency" data-source-line="25" id="lnk13"><path d="M270.75,480.3269 C270.75,496.1169 270.75,510.1769 270.75,525.9869" fill="none" id="main-to-hp" style="stroke:#181818;stroke-width:1;"/><polygon fill="#181818" points="270.75,530.9869,274.75,521.9869,270.75,525.9869,266.75,521.9869,270.75,530.9869" style="stroke:#181818;stroke-width:1;stroke-linejoin:miter;stroke-miterlimit:10;"/><text fill="#000000" font-family="sans-serif" font-size="13" lengthAdjust="spacing" textLength="120.9229" x="199.25" y="510.3038">CSV via BLE Notify</text></g><!--reverse link main to hp--><g class="link" data-entity-1="ent0004" data-entity-2="ent0007" data-link-type="dependency" data-source-line="27" id="lnk15"><path d="M294.3693,485.4142 C296.7193,500.1142 295.92,516.5669 293.54,531.2069" fill="none" id="main-backto-hp" style="stroke:#181818;stroke-width:1;"/><polygon fill="#181818" points="293.58,480.4769,291.0509,489.9955,294.3693,485.4142,298.9506,488.7326,293.58,480.4769" style="stroke:#181818;stroke-width:1;stroke-linejoin:miter;stroke-miterlimit:10;"/><text fill="#000000" font-family="sans-serif" font-size="13" lengthAdjust="spacing" textLength="71.4873" x="246.75" y="510.3038">ACK ("OK")</text></g><?plantuml-src RLF1Rfj04Btp5IDRQl71ZPEugUL39GmqMCQ03AIrwXxMU69MMNOHB4dTKpuYNvWlwOATcBf6N9PzyzwyDuEaaY5CkSHjGKeAORKkQIanWzVd5xYM8biB5kvuecaCxoL80GNTfX8sjC14Ki4rxIEylZoh5wPU44UWFz22zWxVj4HakU389NJ2o0uWjBtGNwouFW_Ycy7dGM_5Vyx41Y72ZF1V7I0bAFqSkcwjCs4LjZac2zk8d2EBOPd_CK3DiIwGoFJ0Oeg2i7zeZ2Yo5ykw3UF7vPV1S7HaeLd3SQ0Xyi1nMo2spOPJvMSEXcSPe4laMvAUCtqT-VE9xuPBp_mqzVnQnRVifcnlDYEK7oIMo9XuQcduSRHFb732px7xhcsj-ENLwFVDiFFMis2uWUxtL0NGnjh68d1ypwvJkxA2NgEEfCXJ1O1kmAgi3NS2-ER6TKogOEBQUtog1XEbQaCOjleC3CzmtjfhfWVGR_Qa_tLlS0oq3DM5XLAj3MvqbNSOpBN3c4x1MvHcLHIgaI0b9TPePxg8Wuj9R7YtMZsLCnAgwaumIRQgu48TN7n4LjScXB4rIHx6a1HKKdM43z14tLI-ypJ9rSyOgdn395gqp1dPwRqJu7jiOp2g3HLWLhZYm-6WFneDd3ydw3JVxvD2c-4TF582Ab3mXAJtEqrJr_twvpeQCSmPw1r_rkbfVm40?></g></svg>